<?xml version="1.0" encoding="UTF-8"?>
<svg id="Layer_2" data-name="Layer 2" xmlns="http://www.w3.org/2000/svg" viewBox="0 0 148 368.32">
  <defs>
    <style>
      .cls-1 {
        fill: #a29ddf;
      }

      .cls-2 {
        fill: #2e1d00;
      }

      .cls-3 {
        fill: #fff;
      }

      .cls-4 {
        fill: #f0d0b4;
      }

      .cls-5 {
        fill: #ff355f;
      }

      .cls-6 {
        fill: #666;
      }

      .cls-7 {
        fill: #b8bdff;
      }
    </style>
  </defs>
  <g id="Layer_1-2" data-name="Layer 1">
    <g>
      <path class="cls-4" d="M52,112.57c.79,1.33,1.98,3.12,3.68,5.03,2.78,3.12,8.2,9.21,16.63,9.98,7.09.65,15.6-2.54,19.12-9.15.98-1.83,1.38-3.57,1.57-4.86-6.04.75-13.11,1.22-21,1-7.5-.21-14.23-1-20-2Z"/>
      <path class="cls-6" d="M30.86,226.15c-.55,45.73-1.11,91.46-1.66,137.19,13.86,1.11,27.71,2.22,41.57,3.33.55-35.2,1.11-70.39,1.66-105.59,2.77,35.75,5.54,71.5,8.31,107.25,12.75-.83,25.5-1.66,38.25-2.49-.83-46.28-1.66-92.57-2.49-138.85-13.47,1.74-29.14,2.87-46.56,2.49-14.41-.31-27.51-1.6-39.08-3.33Z"/>
      <path class="cls-7" d="M53,113.57c-6.27,1.12-15.42,3.72-23.75,10.51-11.52,9.38-14.92,21.62-20.79,42.4-5.11,18.11-6.5,33.72-7.46,45.09-.66,7.85-.91,14.41-1,19,10.33,1.33,20.67,2.67,31,4v-8c4.28,1.51,10.13,3.37,17.2,4.98,3.08.7,13.9,3.14,24.4,3.57,7.9.33,23.53-.14,43.4-8.56.33,3.33.67,6.67,1,10,10.33-2,20.67-4,31-6-1.76-24.11-5.07-44.02-8.06-58.63-5.95-29.14-10.78-38.2-18.29-44.9-9.57-8.54-20.99-11.17-28.39-12.11-6.65,3.88-13.3,7.76-19.95,11.64-6.77-4.34-13.54-8.67-20.31-13.01Z"/>
      <path class="cls-4" d="M124.24,69.65c-.65,11.52-1.31,24.13-10.77,33.85-11.69,12.01-27.86,11.73-39.24,11.54-11.1-.19-27.55-.4-39.24-13.08-9.74-10.57-10.38-23.78-10.77-32.31-.29-6.37-1.57-34.01,16.93-46.93,8.92-6.23,18.38-6.2,33.85-6.15,16.79.05,27.87.09,36.93,7.69,14.2,11.92,12.97,33.63,12.31,45.39Z"/>
      <circle class="cls-3" cx="46.92" cy="64.65" r="10.39"/>
      <circle cx="49.23" cy="66.19" r="8.08"/>
      <circle class="cls-3" cx="98.47" cy="65.42" r="10.39"/>
      <circle cx="96.16" cy="66.96" r="8.08"/>
      <path class="cls-4" d="M24.23,63.5c-.82-1.11-2.59-3.18-5.39-3.85-5.37-1.29-11.14,3.38-13.08,8.46-1.49,3.9-.49,7.46,0,9.23,2.32,8.3,9.81,11.87,10.77,12.31,4.9,2.24,9.44,1.86,11.54,1.54-1.61-4.28-3.25-10.02-3.85-16.93-.35-4.02-.27-7.65,0-10.77Z"/>
      <path class="cls-4" d="M124.63,64.65c.52-.54,4.44-4.46,10-3.85,6.87.75,9.7,7.7,10,8.46,2.88,7.4-2.22,14.24-3.08,15.39-1.33,1.79-4.83,5.78-10.77,6.92-4.2.81-7.64-.19-9.23-.77.93-4.14,1.75-8.78,2.31-13.85.49-4.41.71-8.53.77-12.31Z"/>
      <path class="cls-2" d="M38.85,48.11c.57,1.5,5.86-1.1,12.31,1.54,2.92,1.2,4.71,2.91,5.39,2.31.67-.6-.31-3-1.54-4.62-2.13-2.79-6.47-5.1-10.77-3.85-3.02.88-5.82,3.46-5.39,4.62Z"/>
      <path class="cls-2" d="M107.19,48.73c-.57,1.5-5.86-1.1-12.31,1.54-2.92,1.2-4.71,2.91-5.39,2.31-.67-.6.31-3,1.54-4.62,2.13-2.79,6.47-5.1,10.77-3.85,3.02.88,5.82,3.46,5.39,4.62Z"/>
      <path d="M45,97.57c1.27,1.53,10.84-10.1,27-11,17.77-.99,29.67,11.79,31,10,1.53-2.07-11.7-22.65-30-22-17.87.64-29.55,21.13-28,23Z"/>
      <path class="cls-5" d="M65.5,89.57c.69,1.06,4.03,6,9.25,6,.95,0,5.47-.16,9.25-6"/>
      <path class="cls-2" d="M24,63.57c-3.39-5.6-7.59-14.57-8-26-.26-7.1-.84-23.1,10-30,7.16-4.56,15.7-2.85,19-2C56.69.4,65.86,0,72,.57c16.96,1.55,22.97,10.25,36,7,9.8-2.44,14.76-9.63,19-7,3.88,2.41,3.06,10.5,3,11-.52,4.61-2.91,7.74-4,9,2.1,3.05,4.76,7.79,6,14,3.04,15.29-4.36,30.39-7,30-1.51-.23-.35-5.42-3-14-1.57-5.07-5.72-18.49-15-23-10.37-5.04-16.46,6.24-36,6-16.36-.2-21.2-8.21-30-5-6.5,2.37-13.76,10.33-17,35Z"/>
      <path class="cls-3" d="M46,27.57c-.33-7.33-.67-14.67-1-22"/>
      <circle class="cls-3" cx="77.5" cy="147.07" r="2.5"/>
      <circle class="cls-3" cx="77.5" cy="169.07" r="2.5"/>
      <circle class="cls-3" cx="77.5" cy="191.07" r="2.5"/>
      <circle class="cls-3" cx="77.5" cy="213.07" r="2.5"/>
      <path class="cls-3" d="M39,153.57c-2.67,24.33-5.33,48.67-8,73"/>
      <path class="cls-3" d="M108.1,154.21c2.67,24.33,5.33,48.67,8,73"/>
      <path class="cls-4" d="M4,231.57c-4.71,9.01-2.81,18.85,3,23,5.26,3.76,13.38,1.45,15,1,3.68-1.03,6.38-2.77,8-4v-17c-8.67-1-17.33-2-26-3Z"/>
      <path class="cls-4" d="M142,231.57c.82,2.29,1.79,5.73,2,10,.22,4.52.42,8.41-2,12-3.04,4.51-8.23,5.62-10,6-7.46,1.59-13.48-2.02-15-3v-20c8.33-1.67,16.67-3.33,25-5Z"/>
      <path class="cls-3" d="M126,20.57c-2.75,2.93-7,4.48-11,4,4.01-.25,7.77-1.61,11-4h0Z"/>
      <path class="cls-1" d="M73,126.57c.41.04,3.34.4,5,3,1.07,1.67,1.04,3.36,1,4,7.67-5.67,15.33-11.33,23-17-1.6-.28-3.27-.61-5-1-1.39-.32-2.72-.65-4-1-6.67,4-13.33,8-20,12Z"/>
      <path class="cls-1" d="M72.75,125.95c-.41.04-3.34.4-5,3-1.07,1.67-1.04,3.36-1,4-7.67-5.67-15.33-11.33-23-17,1.6-.28,3.27-.61,5-1,1.39-.32,2.72-.65,4-1,6.67,4,13.33,8,20,12Z"/>
    </g>
  </g>
</svg>