<?xml version="1.0" encoding="UTF-8"?>
<svg id="Layer_2" data-name="Layer 2" xmlns="http://www.w3.org/2000/svg" viewBox="0 0 99 90">
  <defs>
    <style>
      .cls-1 {
        fill: #fff;
      }

      .cls-2 {
        fill: #b2b2b2;
      }

      .cls-3 {
        letter-spacing: 0em;
      }

      .cls-4 {
        font-family: MyriadPro-Regular, 'Myriad Pro';
        font-size: 12px;
      }

      .cls-5 {
        fill: #ededed;
      }

      .cls-6 {
        fill: #e6e6e6;
      }
    </style>
  </defs>
  <g id="Layer_1-2" data-name="Layer 1">
    <g>
      <rect class="cls-6" x="4" y="9" width="95" height="81"/>
      <rect class="cls-5" width="95" height="81"/>
      <rect class="cls-2" x="8" y="25" width="35" height="35"/>
      <path class="cls-1" d="M49,56c3.38-.94,6.12-1.06,8-1,3.95.13,4.99,1.12,9,1,3.75-.11,3.4-.98,7-1,3.36-.01,4.53.74,9,1,2.16.12,3.91.06,5,0"/>
      <text class="cls-4" transform="translate(85.24 65.67) rotate(-180)"><tspan x="0" y="0">Headline ne</tspan><tspan class="cls-3" x="59.92" y="0">w</tspan><tspan x="68.67" y="0">s</tspan></text>
      <path class="cls-1" d="M50,43c3.82-2.46,6.36-2.48,8-2,1.67.49,1.89,1.34,4,2,2.46.76,3.44,0,7,0,3.32,0,2.96.67,8,1,3.86.25,5.54-.04,7-1,.99-.65,1.63-1.45,2-2"/>
      <path class="cls-1" d="M51,31.18c2.27.32,5.7.59,9.7,0,4.6-.68,5.35-1.83,8.62-1.66,4.18.21,5.21,2.19,9.7,2.49,2.69.18,4.97-.35,6.47-.83"/>
      <path class="cls-1" d="M12,12c6.3-1.11,11.43-1.17,15-1,6.14.29,8.43,1.27,15,1,4.39-.18,4.05-.65,10-1,3.08-.18,7.45-.44,13,0,5.19.41,6.01,1,10,1,3.85,0,6.99-.55,9-1"/>
    </g>
  </g>
</svg>