<?xml version="1.0" encoding="UTF-8"?>
<svg id="Layer_2" data-name="Layer 2" xmlns="http://www.w3.org/2000/svg" viewBox="0 0 187.93 231.84">
  <defs>
    <style>
      .cls-1 {
        fill: none;
        stroke: #000;
        stroke-miterlimit: 10;
      }

      .cls-2 {
        fill: #fff;
      }

      .cls-3 {
        fill: #cfffcc;
      }
    </style>
  </defs>
  <g id="Layer_1-2" data-name="Layer 1">
    <g>
      <g>
        <rect class="cls-3" x="19.36" y="9.42" width="155" height="213" transform="translate(16.39 -11.93) rotate(7.69)"/>
        <circle class="cls-2" cx="41.63" cy="13.1" r="3"/>
        <circle class="cls-2" cx="39.49" cy="28.95" r="3"/>
        <circle class="cls-2" cx="37.35" cy="44.81" r="3"/>
        <circle class="cls-2" cx="35.21" cy="60.66" r="3"/>
        <circle class="cls-2" cx="33.06" cy="76.52" r="3"/>
        <circle class="cls-2" cx="30.92" cy="92.38" r="3"/>
        <circle class="cls-2" cx="28.78" cy="108.23" r="3"/>
        <circle class="cls-2" cx="26.64" cy="124.09" r="3"/>
        <circle class="cls-2" cx="24.5" cy="139.94" r="3"/>
        <circle class="cls-2" cx="22.35" cy="155.8" r="3"/>
        <circle class="cls-2" cx="20.21" cy="171.66" r="3"/>
        <circle class="cls-2" cx="18.07" cy="187.51" r="3"/>
        <circle class="cls-2" cx="15.93" cy="203.37" r="3"/>
        <path class="cls-1" d="M41.63,13.1c-.22-3.77-2.68-6.93-6-7.87-3.74-1.06-8.69.67-9.72,4.74-.91,3.6,1.56,7.8,5.87,8.87"/>
        <path class="cls-1" d="M39.98,28.81c-.22-3.77-2.68-6.93-6-7.87-3.74-1.06-8.69.67-9.72,4.74-.91,3.6,1.56,7.8,5.87,8.87"/>
        <path class="cls-1" d="M37.59,44.74c-.22-3.77-2.68-6.93-6-7.87-3.74-1.06-8.69.67-9.72,4.74-.91,3.6,1.56,7.8,5.87,8.87"/>
        <path class="cls-1" d="M34.94,60.32c-.22-3.77-2.68-6.93-6-7.87-3.74-1.06-8.69.67-9.72,4.74-.91,3.6,1.56,7.8,5.87,8.87"/>
        <path class="cls-1" d="M33.45,76.52c-.22-3.77-2.68-6.93-6-7.87-3.74-1.06-8.69.67-9.72,4.74-.91,3.6,1.56,7.8,5.87,8.87"/>
        <path class="cls-1" d="M30.8,92.1c-.22-3.77-2.68-6.93-6-7.87-3.74-1.06-8.69.67-9.72,4.74-.91,3.6,1.56,7.8,5.87,8.87"/>
        <path class="cls-1" d="M28.42,108.03c-.22-3.77-2.68-6.93-6-7.87-3.74-1.06-8.69.67-9.72,4.74-.91,3.6,1.56,7.8,5.87,8.87"/>
        <path class="cls-1" d="M26.76,123.74c-.22-3.77-2.68-6.93-6-7.87-3.74-1.06-8.69.67-9.72,4.74-.91,3.6,1.56,7.8,5.87,8.87"/>
        <path class="cls-1" d="M24.88,139.95c-.22-3.77-2.68-6.93-6-7.87-3.74-1.06-8.69.67-9.72,4.74-.91,3.6,1.56,7.8,5.87,8.87"/>
        <path class="cls-1" d="M22.23,155.53c-.22-3.77-2.68-6.93-6-7.87-3.74-1.06-8.69.67-9.72,4.74-.91,3.6,1.56,7.8,5.87,8.87"/>
        <path class="cls-1" d="M19.85,171.45c-.22-3.77-2.68-6.93-6-7.87-3.74-1.06-8.69.67-9.72,4.74-.91,3.6,1.56,7.8,5.87,8.87"/>
        <path class="cls-1" d="M18.19,187.17c-.22-3.77-2.68-6.93-6-7.87-3.74-1.06-8.69.67-9.72,4.74-.91,3.6,1.56,7.8,5.87,8.87"/>
        <path class="cls-1" d="M16.41,203.23c-.22-3.77-2.68-6.93-6-7.87-3.74-1.06-8.69.67-9.72,4.74-.91,3.6,1.56,7.8,5.87,8.87"/>
      </g>
      <rect class="cls-1" x="54.66" y="34.91" width="99" height="54" transform="translate(9.23 -13.39) rotate(7.69)"/>
    </g>
  </g>
</svg>