<?xml version="1.0" encoding="UTF-8"?>
<svg id="Layer_2" data-name="Layer 2" xmlns="http://www.w3.org/2000/svg" viewBox="0 0 45 169.53">
  <defs>
    <style>
      .cls-1 {
        fill: #fff;
      }

      .cls-2 {
        fill: #d5baa7;
      }

      .cls-3 {
        fill: #ffb233;
      }

      .cls-4 {
        fill: #bf977b;
      }
    </style>
  </defs>
  <g id="Layer_1-2" data-name="Layer 1">
    <g>
      <path class="cls-1" d="M30,159.73c1.64.34,4.53.73,8,0,3.27-.69,5.65-2.07,7-3"/>
      <rect class="cls-4" x="33" y="151.73" width="9" height="17" transform="translate(-35.35 12.68) rotate(-13.11)"/>
      <path class="cls-3" d="M29.95,159.87c.61-.74,2.95-3.4,7.05-4.15,3.81-.7,6.76.7,7.65,1.16C34.77,108.22,24.89,59.54,15.01,10.87,11.68,7.25,8.36,3.62,5.04,0,3.46,4.62,1.88,9.23.31,13.85c9.88,48.67,19.76,97.35,29.64,146.02Z"/>
      <path class="cls-1" d="M0,13.73c.85-.86,3.6-3.45,8-4,3.26-.41,5.82.49,7,1"/>
      <path class="cls-2" d="M37,108.73c-1.67.33-3.33.67-5,1,2.67,12.33,5.33,24.67,8,37,1.67-.33,3.33-.67,5-1-2.67-12.33-5.33-24.67-8-37Z"/>
      <path class="cls-1" d="M44,145.73v6c-1-1.67-2-3.33-3-5,1-.33,2-.67,3-1Z"/>
    </g>
  </g>
</svg>