<?xml version="1.0" encoding="UTF-8"?>
<svg id="Layer_2" data-name="Layer 2" xmlns="http://www.w3.org/2000/svg" viewBox="0 0 32.98 163.15">
  <defs>
    <style>
      .cls-1 {
        fill: #fff;
      }

      .cls-2 {
        fill: #2c8fbf;
      }

      .cls-3 {
        fill: #ffc566;
      }

      .cls-4 {
        fill: #f3d39a;
      }
    </style>
  </defs>
  <g id="Layer_1-2" data-name="Layer 1">
    <g>
      <path class="cls-2" d="M.2,159.56l14.89,1.83c5.96-49.46,11.93-98.93,17.89-148.39-4.88-.44-9.76-.88-14.64-1.33C12.3,60.97,6.25,110.27.2,159.56Z"/>
      <path class="cls-3" d="M15.14,161.88c-1.22.54-4.15,1.64-7.92,1.16-3.66-.47-6.16-2.18-7.22-3,.68-5.63,1.37-11.25,2.05-16.88l15.14,1.84-2.05,16.88Z"/>
      <path class="cls-4" d="M17.98,12L26.98,0c2,4.33,4,8.67,6,13-5-.33-10-.67-15-1Z"/>
      <path class="cls-1" d="M17.98,12.03c1.33-1,2.67-2,4-3v3l3-3c.33.99.67,1.98,1,2.97.67-.66,1.33-1.31,2-1.97.67,1,1.33,2,2,3,.33-1,.67-2,1-3,.67,1,1.33,2,2,3"/>
      <path d="M26.98,0c-1,1.33-2,2.67-3,4h5c-.67-1.33-1.33-2.67-2-4Z"/>
    </g>
  </g>
</svg>