<?xml version="1.0" encoding="UTF-8"?>
<svg id="Layer_2" data-name="Layer 2" xmlns="http://www.w3.org/2000/svg" viewBox="0 0 1364.71 768.67">
  <defs>
    <style>
      .cls-1 {
        font-size: 78px;
      }

      .cls-1, .cls-2 {
        font-family: SuperFuntime, 'Super Funtime';
      }

      .cls-3 {
        fill: none;
        stroke: #000;
        stroke-miterlimit: 10;
      }

      .cls-4 {
        fill: #851c24;
      }

      .cls-5 {
        fill: #fff;
      }

      .cls-6 {
        fill: #f0f0f0;
      }

      .cls-7 {
        letter-spacing: -.02em;
      }

      .cls-8 {
        letter-spacing: 0em;
      }

      .cls-2 {
        font-size: 64px;
      }

      .cls-9 {
        fill: #231f20;
      }

      .cls-10 {
        letter-spacing: -.07em;
      }

      .cls-11 {
        letter-spacing: -.01em;
      }

      .cls-12 {
        fill: #1b1b1a;
      }

      .cls-13 {
        fill: #94e9ff;
      }

      .cls-14 {
        fill: #ffed21;
      }

      .cls-15 {
        letter-spacing: -.02em;
      }

      .cls-16 {
        fill: #414042;
      }

      .cls-17 {
        letter-spacing: -.07em;
      }

      .cls-18 {
        letter-spacing: -.03em;
      }
    </style>
  </defs>
  <g id="Layer_1-2" data-name="Layer 1">
    <polygon class="cls-13" points="1364.21 0 1364.21 766.6 .7 766.6 .7 768.17 .5 768.17 .5 0 1364.21 0"/>
    <path class="cls-5" d="M62.72,766.6c.02.53.03,1.05.02,1.57H1.49c0-.52,0-1.05.01-1.57.02-11.99.05-23.98.08-35.97,21.94-7.95,45.15-.41,55.51,16.33,4.06,6.57,5.48,13.47,5.63,19.64Z"/>
    <path class="cls-5" d="M1364.21,644.9v121.7h-258.08c11.69-15.89,34.29-40.02,70.92-52.3,58.79-19.7,108.26,6.39,116.46,10.89.73-7.73,3.93-31.14,22.85-52.25,17.88-19.93,39.31-26.12,47.85-28.04Z"/>
    <path class="cls-5" d="M1364.21,33.11c-1.57-1.58-3.24-2.98-5.02-4.23-12.12-8.49-26.33-7.49-43.86-6.03-39.02,3.26-67.55,20.42-82.39,31.07-9.19-5.21-31.16-16.06-60.95-15.24-31.99.9-54.5,14.73-63.13,20.69-9.51-4.76-42.87-19.98-83.81-9.79-26.96,6.7-44.85,21.37-53.33,29.38-13.73-4.27-43.81-11.32-76.19,1.09-14.46,5.55-34.33,16.87-46.79,31.18-7.94,9.1-12.87,19.42-11.5,30.22.45,3.52,1.52,6.78,3.01,9.75,3.46,6.96,9.17,12.4,14.23,16.26.17.14.35.27.52.39,3.83,2.86,7.24,4.81,8.97,5.79,29.44,16.76,61.15,2.97,65.3,1.09,22.72,5.58,56.82,11.15,97.94,7.4,34.1-3.11,61.92-11.62,81.64-19.36,20.82,7.89,83.65,28.51,151.29,2.17,22.67-8.82,40.34-20.76,53.33-31.56,26.48,13.56,41.14,7.17,44.63,5.44,2.18-1.09,4.22-2.45,6.11-4.06V33.11Z"/>
    <path class="cls-5" d="M103.74,634.66c18.23-11.88,39.71-7.94,53.33-5.44,9.11,1.67,22.82,5.32,38.09,14.15,4.58-2.81,17.4-9.85,34.83-8.71,21.29,1.39,34.71,14.02,38.09,17.41,7.4-1.68,19.42-3.45,33.74-1.09,2.68.44,29.02,4.79,29.53,12.81.5,7.86-23.86,17.67-45.85,20.93-30.56,4.53-36.72-6.55-76.19-8.71-35.53-1.94-41.1,6.45-75.1,1.09-12.77-2.01-44.6-7.04-46.8-20.68-1.62-10.07,13.67-20.04,16.33-21.77Z"/>
    <polyline class="cls-3" points="1364.4 768.17 1364.21 768.17 1217.04 768.17 1105 768.17 62.74 768.17 1.49 768.17 .7 768.17 .68 768.17 .5 768.17 .5 759.33 .5 736.48"/>
    <path class="cls-5" d="M893.83,381.86c-55.15,36.09-122.95,3.16-129.73-.25-16.63,8.46-53.83,24.53-102.94,21.71-43.63-2.5-75.73-18.7-91.59-28.14-35.9,11.42-61.31,8.04-74.25,5.05-5.8-1.34-9.94-2.8-11.84-3.5-6.47-2.38-45.39-16.73-48.25-41.48-2.9-25.05,32.79-46.28,48.25-53.22,4.36-1.96,15.12-6.38,30-7.81,26.92-2.59,47.98,6.46,57.76,11.49,11.01-6.43,45.31-24.51,89.1-17.09,23.89,4.04,41.6,14.15,51.99,21.32,18.91-5.96,47.56-12.75,82.5-12.18,51.78.86,131.14,18.12,136.14,52.86,3.54,24.62-31.75,47.72-37.12,51.24Z"/>
    <text class="cls-1" transform="translate(500.78 195.38)"><tspan class="cls-11" x="0" y="0">C</tspan><tspan class="cls-10" x="41.42" y="0">a</tspan><tspan x="83.54" y="0">t</tspan><tspan class="cls-18" x="118.09" y="0">e</tspan><tspan x="153.58" y="0">gori</tspan><tspan class="cls-7" x="297.33" y="0">e</tspan><tspan class="cls-8" x="333.84" y="0">s</tspan></text>
    <g>
      <path class="cls-16" d="M273.02,537.71c3.19,12.45,4.61,23.12,5.28,31.02,2.9,33.89-5.09,49.21-7.14,52.93-.09.16-.15.28-.19.34-18.4,33.08-83.43,31.21-98.87-.98-8.92-18.59-3.88-43.53-3.31-46.21.01-.05.02-.1.03-.13,3.18-14.81,8.99-26.87,16.04-36.75,12.5,2.09,27.54,3.68,44.57,3.61,16.62-.07,31.31-1.71,43.57-3.82Z"/>
      <path class="cls-5" d="M261.05,615.24c1.47-5.23,3.68-16.04-.13-28.68-1.65-5.48-4.4-14.56-12.87-21.27-14.62-11.56-40.21-10.78-53.24,1.21-6.25,5.75-8.41,12.92-10.15,18.72-3.45,11.5-2.27,21.47-1.11,27.14,3,1.78,5.76,3.14,8.08,4.16,29.21,12.82,58.18,3.11,61.86,1.82,3.34-1.17,5.97-2.35,7.56-3.1Z"/>
      <path class="cls-12" d="M253.76,542.57c-.09-.67-11.59,1.66-29.56,1.34-21.31-.38-34.64-4.19-34.79-3.46-.16.79,15.09,6.63,34.3,6.81,16.57.16,30.15-3.96,30.05-4.7Z"/>
      <path class="cls-5" d="M344.99,453.93c2.9,3.68,7.99,11.26,8.86,21.66,1.11,13.39-5.46,23.49-8.37,27.97-15.95,24.51-66.32,37.93-116.03,37.97-50.13.04-100.69-13.52-115.12-37.51-7.9-13.13-7.71-26-7.71-26,.18-11.65,5.01-20.4,7.71-24.56-.25-9.71,0-45.5,26.28-76.73,33.52-39.85,82.3-40.03,92.19-39.81,10.47.23,52.92,1.85,84.27,37.08,29.15,32.75,28.3,71.61,27.93,79.94Z"/>
      <path class="cls-16" d="M255.38,456.7c.09,2.42.83,16.51,12.23,26.61,13.19,11.68,35.96,13.87,48.57,1.81,10.72-10.24,8.98-25.87,8.74-27.82-2.77-21.92-27.29-43.82-47.68-37.08-13.98,4.62-22.4,21.51-21.86,36.48Z"/>
      <path class="cls-16" d="M205.17,456.7c-.09,2.42-.83,16.51-12.23,26.61-13.19,11.68-35.96,13.87-48.57,1.81-10.72-10.24-8.98-25.87-8.74-27.82,2.77-21.92,27.29-43.82,47.68-37.08,13.98,4.62,22.4,21.51,21.86,36.48Z"/>
      <circle class="cls-5" cx="276.59" cy="456.77" r="21.24"/>
      <circle class="cls-5" cx="183.96" cy="456.77" r="21.24"/>
      <path class="cls-9" d="M239.19,470.78c-1.6-4.34-17.08-4.65-18.78-.48-1.14,2.8,3.05,9.79,9.63,9.63,6.1-.15,10.18-6.36,9.15-9.15Z"/>
      <path class="cls-4" d="M216.69,486.82c.82.36,2.54.97,4.68.68,1.4-.19,2.39-.68,2.83-.9,3.51-1.78,4.97-5.57,5.36-6.67.44,1.18,1.97,4.88,5.54,6.67,1.3.65,2.62.92,2.99.99,2.12.41,3.9.16,4.97-.07,0,0,0,0,0,0,0,0-7.41,13.43-14.01,13.58-2.89.07-7.07-2.38-12.36-14.27Z"/>
      <path class="cls-6" d="M229.88,356.65c-1.1.12-1.55-6.68-5.14-12.2-2.87-4.42-7.31-6.73-10.92-8.03,1.75-.36,5.56-.89,9.92.65,6.16,2.17,9.17,6.97,9.97,8.36.3-1.59.7-4.99-.93-8.53-2.28-4.93-7.56-8.13-13.63-8.43,6.28-3.19,13.64-2.58,18.75,1.53,4.91,3.95,5.74,9.92,6.1,12.52,1.03,7.47-2.04,13.9-2.57,13.8-.25-.04.1-1.57-.08-5.22-.17-3.43-.35-6.71-2.01-10.11-.88-1.82-1.93-3.14-2.66-3.96.34,1.2.62,2.71.65,4.44.06,4.44-1.62,7.83-2.63,9.52-.53-1.38-1.46-3.31-3.07-5.27-3.01-3.65-6.98-5.61-7.22-5.3-.17.22,2.04,1.42,4.01,4.49,2.77,4.31,2.42,8.13,2.33,8.91-.1.86-.31,2.75-.88,2.81Z"/>
      <path class="cls-16" d="M338.37,410.21c-2.83-8.13-8.26-20.58-18.73-33.22-10.5-12.68-21.76-20.35-29.24-24.64.73-1.2,13.57-21.43,35.23-21.22,22.16.21,41.47,21.7,39.73,44.06-1.18,15.1-11.79,28.57-27,35.02Z"/>
      <path class="cls-16" d="M122.33,410.21c2.83-8.13,8.26-20.58,18.73-33.22,10.5-12.68,21.76-20.35,29.24-24.64-.73-1.2-13.57-21.43-35.23-21.22-22.16.21-41.47,21.7-39.73,44.06,1.18,15.1,11.79,28.57,27,35.02Z"/>
      <ellipse class="cls-9" cx="265.76" cy="457.7" rx="9.07" ry="11.48"/>
      <ellipse class="cls-9" cx="193.76" cy="457.7" rx="9.07" ry="11.48"/>
      <ellipse class="cls-5" cx="263.03" cy="451.46" rx="4.41" ry="3.61"/>
      <ellipse class="cls-5" cx="197.05" cy="451.46" rx="4.41" ry="3.61"/>
      <path class="cls-6" d="M347.54,498.64c-8.99,5.92-23.09,14.27-41.58,21.35-20.1,7.7-76.58,25.88-141.26,5.3-12.56-4-31.06-11.25-51.53-24.88,2.14,3.59,5.69,8.66,11.24,13.48,2.63,2.29,6.65,5.34,15.25,9.47,12.54,6.02,23.14,8.72,26.17,9.47,31.75,7.87,62.76,7.87,62.76,7.87,23.74,0,40.82-3.24,55.06-5.94,6.93-1.31,21.32-4.27,36.6-11.72,5.9-2.88,11-5.97,16.05-10.59,5.47-5.01,9.03-10.12,11.24-13.8Z"/>
      <path class="cls-12" d="M98.65,358.5c-1.64,4.12-3.56,10.84-2.49,18.86,2.83,21.1,23.74,31.13,25.68,32.02,1.58-4.95,4-11.04,7.79-17.58,3.65-6.31,7.57-11.31,10.97-15.09-3.16,1.02-11.31,3.18-20.84.24-14.02-4.33-20.07-16.3-21.11-18.46Z"/>
      <path class="cls-12" d="M361.73,358.8c1.64,4.12,3.56,10.84,2.49,18.86-2.83,21.1-23.74,31.13-25.68,32.02-1.58-4.95-4-11.04-7.79-17.58-3.65-6.31-7.57-11.31-10.97-15.09,3.16,1.02,11.31,3.18,20.84.24,14.02-4.33,20.07-16.3,21.11-18.46Z"/>
      <path class="cls-5" d="M330.97,393.64c11.42-7.85,12.34-23.24,5.01-30.81-6.63-6.85-20.04-7.31-28.85,1.4,3.87,3.34,8.19,7.55,12.51,12.76,4.94,5.96,8.62,11.72,11.33,16.65Z"/>
      <path class="cls-5" d="M128.53,395.87c-11.49-7.54-12.96-23.01-5.49-31.28,6.89-7.62,20.76-8.46,29.86.22-4.03,3.55-8.6,8.09-13.13,13.78-4.96,6.22-8.59,12.2-11.23,17.28Z"/>
      <path class="cls-16" d="M134.66,480.12c17.89-7.59,44.3,26.2,48.22,31.21,9.41,12.04,18.52,23.69,14.65,34.8-4.67,13.4-25.89,19.34-41.53,15.69-22.5-5.25-34.92-30.58-34.65-50.85.04-2.85.7-25.51,13.32-30.86Z"/>
      <ellipse class="cls-16" cx="259.24" cy="642" rx="32.07" ry="22.14" transform="translate(-365.55 343.65) rotate(-42.49)"/>
      <ellipse class="cls-16" cx="170.46" cy="623.88" rx="22.14" ry="32.07" transform="translate(-284.56 164.27) rotate(-29.43)"/>
      <path class="cls-16" d="M340.72,508.51c-13.16-14.3-51.17,5.56-56.81,8.5-13.55,7.08-26.65,13.93-27.72,25.64-1.28,14.13,15.59,28.31,31.34,31.45,22.66,4.52,44.43-13.42,52.56-31.99,1.14-2.61,9.9-23.52.62-33.6Z"/>
    </g>
    <path class="cls-5" d="M922.86,552.27c-62.94,41.19-140.34,3.61-148.08-.29-18.99,9.66-61.44,28-117.5,24.78-49.8-2.85-86.44-21.34-104.54-32.12-40.97,13.04-69.98,9.18-84.75,5.77-6.62-1.53-11.35-3.19-13.52-3.99-7.38-2.72-51.8-19.09-55.08-47.34-3.31-28.59,37.43-52.82,55.08-60.75,4.98-2.24,17.25-7.28,34.24-8.92,30.73-2.96,54.76,7.38,65.92,13.12,12.57-7.34,51.72-27.97,101.7-19.51,27.27,4.61,47.48,16.15,59.34,24.34,21.59-6.81,54.29-14.56,94.17-13.9,59.1.98,149.69,20.68,155.39,60.34,4.04,28.1-36.24,54.47-42.37,58.49Z"/>
    <text class="cls-2" transform="translate(505.8 352.79)"><tspan x="0" y="0">Gu</tspan><tspan class="cls-15" x="69.06" y="0">e</tspan><tspan x="99.01" y="0">ss Wh</tspan><tspan class="cls-17" x="261.5" y="0">a</tspan><tspan x="296.06" y="0">t?</tspan></text>
    <text class="cls-2" transform="translate(489.66 514.75)"><tspan x="0" y="0">Hidden Obj</tspan><tspan class="cls-15" x="289.21" y="0">ec</tspan><tspan x="352.83" y="0">t</tspan></text>
    <path class="cls-5" d="M222,92.27c12.91-2.79,31.31-6.57,54.13-2.21,13.32,2.54,23.34,6.93,29.62,10.2,4.06-2.13,19.49-9.66,40.47-7.64,17.66,1.71,29.1,9.2,33.06,12.06,14.71,8.64,23,20.76,19.4,28.95-4.62,10.52-30.51,18.33-59.23,8.04-6.55,3.02-29.62,12.81-58.21,8.04-13.44-2.24-23.44-6.92-29.62-10.45-2.46.94-23.66,8.69-43.92,0-14.58-6.26-27.51-20.54-22.73-31.36,3.73-8.44,16.68-11.23,37.03-15.62Z"/>
    <path class="cls-5" d="M490.04,766.02c16.36-11.45,39.62-24.4,69.45-31.64,84.82-20.59,155.8,21.24,173.62,32.47-81.02-.28-162.04-.56-243.06-.84Z"/>
    <path class="cls-5" d="M1364.21,327.38v89.31c-3.6.24-7.33.3-11.18.15-25.81-.99-44.87-10.77-54.13-16.37-6.43,4.19-38.05,23.88-74.55,13.27-5.82-1.69-35.38-10.27-37.79-27.57-3.15-22.67,41.01-55.17,83.75-54.13,20.26.49,35.85,8.42,43.91,13.28,6.79-4.59,24.67-15.55,49.99-17.94Z"/>
    <circle class="cls-14" cx="214.55" cy="88.08" r="55.65"/>
    <path class="cls-5" d="M71.6,75.34c10.4-2.79,25.21-6.57,43.59-2.21,10.72,2.54,18.8,6.93,23.85,10.2,3.27-2.13,15.69-9.66,32.59-7.64,14.22,1.71,23.44,9.2,26.62,12.06,11.85,8.64,18.52,20.76,15.63,28.95-3.72,10.52-24.57,18.33-47.7,8.04-5.27,3.02-23.85,12.81-46.88,8.04-10.83-2.24-18.88-6.92-23.85-10.45-1.98.94-19.05,8.69-35.36,0-11.74-6.26-22.16-20.54-18.3-31.36,3.01-8.44,13.43-11.23,29.82-15.62Z"/>
  </g>
</svg>