<?xml version="1.0" encoding="UTF-8"?>
<svg id="Layer_2" data-name="Layer 2" xmlns="http://www.w3.org/2000/svg" viewBox="0 0 1365.34 768.95">
  <defs>
    <style>
      .cls-1 {
        fill: #42c148;
      }

      .cls-2 {
        font-size: 78px;
      }

      .cls-2, .cls-3 {
        font-family: SuperFuntime, 'Super Funtime';
      }

      .cls-4 {
        fill: #6c2d00;
      }

      .cls-5 {
        stroke: #000;
      }

      .cls-5, .cls-6 {
        fill: none;
        stroke-miterlimit: 10;
      }

      .cls-7 {
        letter-spacing: 0em;
      }

      .cls-8 {
        fill: #fff;
      }

      .cls-9 {
        fill: #74cd6e;
      }

      .cls-10 {
        letter-spacing: -.03em;
      }

      .cls-11 {
        fill: #94e9ff;
      }

      .cls-6 {
        stroke: #fff;
        stroke-width: 2px;
      }

      .cls-12 {
        letter-spacing: -.04em;
      }

      .cls-13 {
        fill: #414042;
      }

      .cls-3 {
        font-size: 40px;
      }

      .cls-14 {
        letter-spacing: 0em;
      }

      .cls-15 {
        fill: #ffc7c2;
      }

      .cls-16 {
        fill: #a26b4a;
      }

      .cls-17 {
        fill: #ddc9a6;
      }
    </style>
  </defs>
  <g id="Layer_1-2" data-name="Layer 1">
    <path class="cls-11" d="M1364.21,0v692.12H.7v.7c-.07,25.11-.13,50.23-.2,75.35V0h1363.71Z"/>
    <path class="cls-8" d="M1364.4,768.17c0-2.08,0-4.16,0-6.24l.06-28.74v-1.36c.1-49.63.2-99.25.31-148.88.1-49.24.2-98.47.3-147.71.09-41.44.18-82.88.26-124.32-.35.07-.72.16-1.13.25-8.54,1.92-29.97,8.11-47.85,28.04-18.92,21.11-22.12,44.52-22.85,52.25-8.2-4.5-57.67-30.59-116.46-10.89-49.77,16.68-73.64,55.25-79.45,65.31-13.98-3.95-53.04-12.99-97.96,3.26-55.71,20.16-81.13,64.99-87.07,76.19-4.36-2.48-11.16-6.11-20.05-9.78-8.82-3.64-19.7-7.32-32.28-9.96-15.12-3.17-32.71-4.84-52.16-3.12-8.69.77-16.92,2.14-24.65,3.95-3.71.86-7.3,1.83-10.78,2.88-36.96,11.13-61.06,31.55-69.88,39.6-11.7-4.78-51.5-19.36-99.3-5.07-40.74,12.18-64.41,38.49-72.93,48.98-7.08-5.07-50.74-35.21-107.75-22.86-45.81,9.94-71.46,41.08-78.36,50.07-.11-9-1.57-41.76-26.12-65.3-29.63-28.41-80.9-31.93-124.08-5.45.69-8.92,2.2-42.13-20.68-69.65-25.56-30.74-71.15-41.87-114.28-27.21.94-2.32,8.5-21.93-2.18-39.18-10.36-16.74-33.57-24.28-55.51-16.33-.27,113.17-.54,226.34-.8,339.51-.02,7.61-.04,15.23-.06,22.85-.01,2.97-.01,5.94-.02,8.91h1363.7Z"/>
    <path class="cls-1" d="M1365.33,733.19c-.37,11.66-.75,23.32-1.12,34.98-454.5.26-909.01.52-1363.51.78,454.5-.26,909.01-.52,1363.51-.78H.7v.78c-.07-10.82-.13-21.65-.2-32.47.09-.02.19-.05.28-.07,151.95-39.21,353.34-80.3,577.53-94.75,46.66-3.02,94.31-4.87,142.7-5.31,16.84-.15,33.21-.13,49.08.05,3.36.03,6.7.07,10.01.12,7.65.11,15.17.26,22.58.44,19.03.47,37.27,1.14,54.65,1.97,12.37.59,24.3,1.26,35.79,1.99,91.72,5.85,155.11,15.63,182.24,20.08,11.59,1.9,22.99,3.88,34.2,5.92,4.1.75,8.17,1.51,12.21,2.27,20.47,3.88,40.27,7.97,59.36,12.22,21.89,4.87,57.46,12.78,103.14,25.94,22.04,6.35,49.56,14.82,81.06,25.84Z"/>
    <path class="cls-9" d="M98.4,729.74c.37,9.86,18.72,18.84,47.08,28.43h1216.34v.78c.01-.26.01-.52.02-.78.06-2.95.12-5.89.18-8.84-.07-.02-.15-.04-.22-.07-76.32-22.55-182.92-50.68-312.15-73.94-73.78-13.27-162.32-28.99-265.44-37.65-59.17-4.97-123.15-7.62-191.89-6.14-3.35.07-6.71.15-10.09.25-.19,0-.39,0-.58.01-7.27.2-14.54.44-21.81.73-18.23.72-36.43,1.7-54.5,2.92-12.06.81-24.06,1.73-35.97,2.75-79.36,6.76-154.65,17.82-216.41,30.63-3.96.81-7.87,1.64-11.71,2.47-7.76,1.69-15.27,3.39-22.53,5.12-63.94,15.23-107.96,32.07-118.1,46.78-1.54,2.23-2.3,4.42-2.22,6.55Z"/>
    <path class="cls-8" d="M67.12,112.94c-8.34,13.13-21.62,17.51-29.3,20.1-16.02,5.39-30.03,3.44-36.81,2.01.5-34.38.99-68.75,1.49-103.13.13.05.25.11.37.16,35-.3,63.25,18.67,69.74,43.72.46,1.8,5.02,20.6-5.49,37.14Z"/>
    <polyline class="cls-5" points=".5 736.48 .5 759.33 .5 768.17 .68 768.17 .7 768.17 1217.04 768.17 1364.21 768.17 1364.4 768.17"/>
    <rect class="cls-16" x="479.16" y="238.07" width="403.4" height="404.43" rx="37.42" ry="37.42"/>
    <text class="cls-2" transform="translate(542.3 174.72)"><tspan x="0" y="0">Settings</tspan></text>
    <text class="cls-3" transform="translate(506.81 320.43)"><tspan x="0" y="0">Langu</tspan><tspan class="cls-10" x="105.4" y="0">a</tspan><tspan class="cls-14" x="128.72" y="0">ge</tspan></text>
    <text class="cls-3" transform="translate(612.79 433.19)"><tspan class="cls-12" x="0" y="0">V</tspan><tspan x="20.4" y="0">olu</tspan><tspan class="cls-7" x="78.48" y="0">m</tspan><tspan x="106.56" y="0">e</tspan></text>
    <rect class="cls-13" x="698.73" y="283.33" width="153.19" height="45.64"/>
    <g>
      <rect class="cls-15" x="1277.05" y="38.87" width="46.27" height="46.27" rx="6.46" ry="6.46"/>
      <path class="cls-6" d="M1314.39,47.97c-9.3,9.48-18.61,18.95-27.91,28.43"/>
      <path class="cls-6" d="M1286.75,48.08c9.3,9.48,18.61,18.95,27.91,28.43"/>
    </g>
    <rect class="cls-17" x="1.75" y="435.59" width="255.78" height="297.95"/>
    <path class="cls-4" d="M291.44,434.25c-26.48-44.26-52.97-88.52-79.45-132.78-70.37-.36-140.74-.73-211.11-1.09,0,45.35,0,90.7,0,136.05,96.85-.73,193.71-1.45,290.56-2.18Z"/>
    <rect class="cls-4" x="53.4" y="471.32" width="78.36" height="105.59" transform="translate(185.16 1048.23) rotate(-180)"/>
    <path class="cls-4" d="M2.14,583.54c2.79,1.06,7.22,3.08,11.62,6.87,6.7,5.76,12.04,14.53,14.97,30.64,3.71,20.44,4.88,60.26,1.02,111.32-9.2.38-18.41.75-27.61,1.13v-149.96Z"/>
    <path class="cls-8" d="M208,192.26c12.91-2.79,31.31-6.57,54.13-2.21,13.32,2.54,23.34,6.93,29.62,10.2,4.06-2.13,19.49-9.66,40.47-7.64,17.66,1.71,29.1,9.2,33.06,12.06,14.71,8.64,23,20.76,19.4,28.95-4.62,10.52-30.51,18.33-59.23,8.04-6.55,3.02-29.62,12.81-58.21,8.04-13.44-2.24-23.44-6.92-29.62-10.45-2.46.94-23.66,8.69-43.92,0-14.58-6.26-27.51-20.54-22.73-31.36,3.73-8.44,16.68-11.23,37.03-15.62Z"/>
    <path class="cls-8" d="M1198.8,0c-1.16,26.05-36.87,49.43-42.62,53.2-62.94,41.19-140.34,3.61-148.07-.29-18.99,9.66-61.44,28-117.5,24.78-49.81-2.85-86.44-21.34-104.54-32.12-40.98,13.03-69.98,9.18-84.76,5.77-6.62-1.53-11.35-3.2-13.51-4-7.39-2.72-51.81-19.09-55.08-47.34h566.08Z"/>
  </g>
</svg>