<?xml version="1.0" encoding="UTF-8"?>
<svg id="Layer_2" data-name="Layer 2" xmlns="http://www.w3.org/2000/svg" viewBox="0 0 1368.05 770.74">
  <defs>
    <style>
      .cls-1 {
        fill: #bfbd95;
      }

      .cls-2 {
        fill: #fff;
      }

      .cls-3 {
        fill: none;
      }

      .cls-3, .cls-4 {
        stroke: #006837;
      }

      .cls-3, .cls-4, .cls-5 {
        stroke-miterlimit: 10;
      }

      .cls-6 {
        fill: #cff;
      }

      .cls-4 {
        fill: #73bf83;
      }

      .cls-7 {
        fill: #955223;
      }

      .cls-8 {
        fill: #908cab;
      }

      .cls-5 {
        fill: #ffb0f0;
        stroke: #f0f;
      }

      .cls-9 {
        fill: #aa335c;
      }

      .cls-10 {
        fill: #fffcc7;
      }

      .cls-11 {
        fill: #950133;
      }
    </style>
  </defs>
  <g id="Layer_1-2" data-name="Layer 1">
    <rect class="cls-1" x="1.01" y=".5" width="1365" height="768"/>
    <rect class="cls-10" x="141.01" y=".5" width="1076" height="582"/>
    <path class="cls-4" d="M1367.01,768.5H1.01c47-61.83,94-123.67,141-185.5,358.33-.17,716.67-.33,1075-.5l150,186Z"/>
    <line class="cls-3" x1="295.51" y1="574.5" x2="188.51" y2="770.5"/>
    <line class="cls-3" x1="441.51" y1="595.5" x2="395.51" y2="770.5"/>
    <line class="cls-3" x1="597.51" y1="603.5" x2="597.51" y2="769.5"/>
    <line class="cls-3" x1="738.51" y1="595.5" x2="801.51" y2="770.5"/>
    <line class="cls-3" x1="895.01" y1="586.5" x2="1009.01" y2="768.5"/>
    <line class="cls-3" x1="1062.01" y1="587.5" x2="1193.01" y2="768.5"/>
    <rect class="cls-7" x="706.01" y="119.5" width="227" height="316"/>
    <rect class="cls-6" x="719.56" y="140.26" width="198.45" height="276.25"/>
    <path class="cls-2" d="M719.56,416.5h89.42c8.22-4.18,11.63-14.07,8-22-3.33-7.3-11.86-11.27-20-9,1.55-7.36-.91-14.65-6-18-7.12-4.7-19.48-1.73-25,9-.98-1.21-9.64-11.44-24-11-13.51.42-21.34,9.95-22.42,11.32v39.68Z"/>
    <path class="cls-2" d="M845.53,416.5c-8.12-4.18-11.48-14.07-7.9-22,3.29-7.3,11.71-11.27,19.75-9-1.53-7.36.9-14.65,5.92-18,7.03-4.7,19.23-1.73,24.68,9,1.2-1.42,9.91-11.39,23.69-11,12.96.36,20.7,9.6,22.71,12,13.23,15.8,6.45,37.42,5.92,39h-94.78Z"/>
    <line class="cls-3" x1="80.51" y1="665.5" x2="1296.51" y2="665.5"/>
    <rect class="cls-7" x="805.01" y="140.5" width="6" height="276"/>
    <g>
      <rect class="cls-5" x="544.01" y=".5" width="146" height="176"/>
      <path class="cls-5" d="M744.01,278.5h-249c16.33-34,32.67-68,49-102h146l54,102Z"/>
      <path class="cls-11" d="M495.01,278.5c.33-7.33.67-14.67,1-22h247c.33,7.33.67,14.67,1,22h-249Z"/>
    </g>
    <rect class="cls-9" x="342.01" y="277.5" width="149" height="7"/>
    <path class="cls-8" d="M367.01,335.5c-.12,5.16,4.13,11,8,11,4.77,0,9.72-8.92,8-15-1.1-3.87-4.23-4.27-6-9-1.45-3.88-.68-7.17,0-11,.79-4.46,4.96-28.06-1-31-.87-.43-2.08-.48-3,0-2.7,1.41-2.44,7.21,0,31,.59,5.72.83,7.88,0,11-1.78,6.73-5.88,8.03-6,13Z"/>
  </g>
</svg>