<?xml version="1.0" encoding="UTF-8"?>
<svg id="Layer_2" data-name="Layer 2" xmlns="http://www.w3.org/2000/svg" viewBox="0 0 1025.9 327.5">
  <defs>
    <style>
      .cls-1 {
        fill: #4033aa;
      }

      .cls-2 {
        fill: #9f99d5;
      }

      .cls-3 {
        fill: #fff;
      }

      .cls-4 {
        fill: #ff8467;
      }

      .cls-5 {
        fill: #ffc07e;
      }

      .cls-6 {
        fill: #0058ff;
      }

      .cls-7 {
        fill: #99bcff;
      }

      .cls-8 {
        fill: #ffb0f0;
        stroke: #f0f;
        stroke-miterlimit: 10;
      }

      .cls-9 {
        fill: #ff99d1;
      }

      .cls-10 {
        fill: #669bff;
      }
    </style>
  </defs>
  <g id="Layer_1-2" data-name="Layer 1">
    <g>
      <rect class="cls-6" y="42.88" width="633.14" height="14.71"/>
      <rect class="cls-7" x="3.87" y="57.59" width="208.21" height="166.41"/>
      <rect class="cls-9" x="420.28" y="57.59" width="208.21" height="166.41"/>
      <rect class="cls-9" x="23.99" y="82.36" width="78.95" height="119.2"/>
      <rect class="cls-9" x="110.68" y="82.36" width="78.17" height="119.2"/>
      <circle class="cls-3" cx="92.49" cy="141.57" r="5.81"/>
      <circle class="cls-3" cx="121.13" cy="141.57" r="5.81"/>
      <rect class="cls-10" x="435.76" y="69.2" width="178.02" height="43.34"/>
      <rect class="cls-10" x="435.76" y="124.15" width="178.02" height="85.14"/>
      <circle class="cls-3" cx="525.16" cy="90.48" r="5.81"/>
      <circle class="cls-3" cx="525.16" cy="140.79" r="5.81"/>
      <rect class="cls-5" x="643.4" width="278" height="224"/>
      <rect class="cls-8" x="844.4" y="50" width="181" height="277"/>
      <path class="cls-1" d="M921.4,0c34.67,16.67,69.33,33.33,104,50h-208c-17.67-13.33-35.33-26.67-53-40h-121V0h278Z"/>
      <path class="cls-2" d="M843.9,50c-26.5-13.33-53-26.67-79.5-40v215c26.5,34,53,68,79.5,102V50Z"/>
      <rect class="cls-4" x="661.4" y="36" width="88" height="166"/>
      <path class="cls-1" d="M775.4,33c18.5,10.67,37,21.33,55.5,32,.5,74.33,1,148.67,1.5,223-19.05-23.67-38.1-47.33-57.15-71,.05-61.33.1-122.67.15-184Z"/>
    </g>
  </g>
</svg>