<?xml version="1.0" encoding="UTF-8"?>
<svg id="Layer_2" data-name="Layer 2" xmlns="http://www.w3.org/2000/svg" viewBox="0 0 141.01 15.2">
  <defs>
    <style>
      .cls-1 {
        fill: #ff6d33;
      }
    </style>
  </defs>
  <g id="Layer_1-2" data-name="Layer 1">
    <g>
      <path class="cls-1" d="M4.57,15.2c-2.23.08-5.16-2.93-4.46-5.2.57-1.86,3.17-1.88,4.46-4.16,1.5-2.63-.57-5.05,0-5.2.68-.17,4.35,3.12,4.46,7.27.09,3.24-1.98,7.19-4.46,7.27Z"/>
      <path class="cls-1" d="M25.22,14.77c-2.23.08-5.16-2.93-4.46-5.2.57-1.86,3.17-1.88,4.46-4.16,1.5-2.63-.57-5.05,0-5.2.68-.17,4.35,3.12,4.46,7.27.09,3.24-1.98,7.19-4.46,7.27Z"/>
      <path class="cls-1" d="M45.22,14.77c-2.23.08-5.16-2.93-4.46-5.2.57-1.86,3.17-1.88,4.46-4.16,1.5-2.63-.57-5.05,0-5.2.68-.17,4.35,3.12,4.46,7.27.09,3.24-1.98,7.19-4.46,7.27Z"/>
      <path class="cls-1" d="M95.89,14.98c-2.23.08-5.16-2.93-4.46-5.2.57-1.86,3.17-1.88,4.46-4.16,1.5-2.63-.57-5.05,0-5.2.68-.17,4.35,3.12,4.46,7.27.09,3.24-1.98,7.19-4.46,7.27Z"/>
      <path class="cls-1" d="M116.54,14.56c-2.23.08-5.16-2.93-4.46-5.2.57-1.86,3.17-1.88,4.46-4.16,1.5-2.63-.57-5.05,0-5.2.68-.17,4.35,3.12,4.46,7.27.09,3.24-1.98,7.19-4.46,7.27Z"/>
      <path class="cls-1" d="M136.54,14.56c-2.23.08-5.16-2.93-4.46-5.2.57-1.86,3.17-1.88,4.46-4.16,1.5-2.63-.57-5.05,0-5.2.68-.17,4.35,3.12,4.46,7.27.09,3.24-1.98,7.19-4.46,7.27Z"/>
    </g>
  </g>
</svg>