<?xml version="1.0" encoding="UTF-8"?>
<svg id="Layer_2" data-name="Layer 2" xmlns="http://www.w3.org/2000/svg" viewBox="0 0 116 129">
  <defs>
    <style>
      .cls-1 {
        fill: #bababa;
      }

      .cls-2 {
        fill: #fff;
      }

      .cls-3 {
        fill: #ffa58a;
      }

      .cls-4 {
        fill: #f1f1f1;
      }

      .cls-5 {
        fill: #804603;
      }
    </style>
  </defs>
  <g id="Layer_1-2" data-name="Layer 1">
    <g>
      <path class="cls-1" d="M92.78,129H25.22c-7.03,0-12.72-5.7-12.72-12.72C8.33,82.02,4.17,47.76,0,13.5c4.36-3.25,9.76-6.7,16.23-9.77,3.14-1.49,6.16-2.72,9-3.73h67.55c2.8.97,5.83,2.19,9,3.73,5.73,2.78,10.46,5.89,14.23,8.77-3.5,34.59-7,69.18-10.5,103.78,0,7.03-5.7,12.72-12.72,12.72Z"/>
      <path class="cls-1" d="M0,13.5c8.33,2.67,16.67,5.33,25,8h71c6.67-3,13.33-6,20-9"/>
      <rect class="cls-3" x="66" y="8.5" width="24" height="13" transform="translate(5.05 -16.42) rotate(12.42)"/>
      <rect class="cls-5" x="54" y="6.5" width="15" height="33" rx="3.8" ry="3.8" transform="translate(.51 47.33) rotate(-42.25)"/>
      <path class="cls-2" d="M25,21.5c4,35.67,8,71.33,12,107"/>
      <path class="cls-2" d="M96,21.5c-3.33,35.67-6.67,71.33-10,107"/>
      <path class="cls-4" d="M18,16.5c-.31-1.17,2.23-3.37,5-4,4.18-.96,6.27,2.25,9,1,2.94-1.35,1.95-5.73,5-7,2.36-.98,5.75.48,6,2,.32,1.92-4.59,2.82-5,6-.44,3.37,4.58,6.1,4,7-.52.81-4.42-1.6-10-3-8.14-2.05-13.58-.39-14-2Z"/>
      <path class="cls-1" d="M25,22.14h71l-3,33c-21.33.33-42.67.67-64,1-1.33-11.33-2.67-22.67-4-34Z"/>
    </g>
  </g>
</svg>