<?xml version="1.0" encoding="UTF-8"?>
<svg id="Layer_2" data-name="Layer 2" xmlns="http://www.w3.org/2000/svg" viewBox="0 0 171.25 394.74">
  <defs>
    <style>
      .cls-1 {
        fill: #340e00;
      }

      .cls-1, .cls-2 {
        opacity: .7;
      }

      .cls-3 {
        fill: #f7d086;
      }

      .cls-2 {
        fill: #722e00;
      }

      .cls-4 {
        fill: #554200;
      }
    </style>
  </defs>
  <g id="Layer_1-2" data-name="Layer 1">
    <g>
      <ellipse class="cls-2" cx="84.94" cy="376.29" rx="64" ry="13.33"/>
      <path class="cls-4" d="M89.86,375.84c-.59.43-2.52,1.73-5.31,1.67-2.73-.06-4.58-1.4-5.15-1.86.25-97.5.51-195.01.76-292.51l9.7-1v293.7Z"/>
      <path class="cls-3" d="M0,85.71L43.02,0l85.62.21,42.6,85.92c-57.08-.14-114.17-.28-171.25-.42Z"/>
      <path class="cls-1" d="M21.07,377.13c.09,1.53.47,3.93,2.07,6.12,0,0,1.5,2.04,4.09,3.32,15.66,7.74,57.19,8.17,57.19,8.17,0,0,35.2.37,54.89-5.62,2.57-.78,6.02-2.2,8.04-5.49,1.66-2.69,1.72-5.59,1.59-7.34-.99,1.27-2.65,3.14-5.14,4.78-2.78,1.84-5.35,2.59-6.78,2.96-18.54,4.84-40.47,5.34-40.47,5.34-11.75.27-20.46.04-23.88-.06-1.81-.06-17.16-.57-31.91-3.38-2.93-.56-7.57-1.54-12.89-4.34-3.01-1.58-5.29-3.25-6.8-4.46Z"/>
    </g>
  </g>
</svg>