<?xml version="1.0" encoding="UTF-8"?>
<svg id="Layer_2" data-name="Layer 2" xmlns="http://www.w3.org/2000/svg" viewBox="0 0 203.18 131.86">
  <defs>
    <style>
      .cls-1 {
        fill: #fef8ab;
      }

      .cls-2 {
        fill: #ac9278;
      }

      .cls-3 {
        fill: #534741;
      }

      .cls-4, .cls-5 {
        fill: #fff;
      }

      .cls-5 {
        stroke: #000;
        stroke-miterlimit: 10;
      }

      .cls-6 {
        fill: #b65339;
      }

      .cls-7 {
        fill: #f3feff;
      }

      .cls-8 {
        fill: #3b0e00;
      }

      .cls-9 {
        fill: #f5e0cd;
      }

      .cls-10 {
        fill: #84d4ee;
      }

      .cls-11 {
        fill: #b8bdff;
      }

      .cls-12 {
        fill: #fddec9;
      }

      .cls-13 {
        fill: #4b1a0e;
      }
    </style>
  </defs>
  <g id="Layer_1-2" data-name="Layer 1">
    <g>
      <rect class="cls-2" width="203.18" height="131.86"/>
      <rect class="cls-7" x="14.59" y="15.96" width="174.15" height="99.96"/>
      <g>
        <path class="cls-8" d="M188.74,113.52v2.4h-23.84c-6.22-.59-11.51-.32-14.86,0h-28.31c.6-3.1,1.8-7.78,3.83-14.96,3.12-11.07,6.57-18.8,8.41-24.74.42-1.32.75-2.54.98-3.7t0-.03s0-.01,0-.01c.5-2.59.5-4.83-.24-6.89-.09-.25-.25-.62-.43-1.15v-.03c-.52-1.57-1.2-4.26-.78-7.48,0,0,.37-2.78,1.69-5.3,3.09-5.91,11.12-9.44,18.29-9.62,12.71-.33,19.96,9.93,20.21,10.35.61.99.93,2.03.93,2.03.53,1.51.73,3,.73,4.4,0,2-.41,3.81-.83,5.2h0c-.33,1.05-.65,1.84-.83,2.32-.96,2.61-.71,5.93.55,10.5,0,.03.01.05.02.08,1.55,5.6,4.6,13.07,8.81,23.35,2.49,6.06,4.44,10.28,5.67,13.28Z"/>
        <path class="cls-9" d="M172.01,69.13c-.23,4.07-.46,8.53-3.81,11.97-4.13,4.25-9.85,4.15-13.88,4.08-3.92-.07-9.74-.14-13.88-4.63-3.44-3.74-3.67-8.41-3.81-11.43-.1-2.25-.55-12.03,5.99-16.6,3.16-2.2,6.5-2.19,11.97-2.18,5.94.02,9.86.03,13.06,2.72,5.02,4.22,4.59,11.9,4.35,16.05Z"/>
        <circle class="cls-4" cx="144.67" cy="67.36" r="3.67"/>
        <circle cx="145.48" cy="67.91" r="2.86"/>
        <circle class="cls-4" cx="162.9" cy="67.63" r="3.67"/>
        <circle cx="162.08" cy="68.18" r="2.86"/>
        <path class="cls-13" d="M149.82,54.67c2.27-1.15,3.83-3.97,3.13-5.05-.83-1.28-4.8-.18-6.98.72-6.51,2.7-9.81,8.99-9.38,9.38.35.33,2.84-3.88,7.7-4.57,2.48-.35,3.63.49,5.53-.48Z"/>
        <path class="cls-9" d="M136.64,66.95c-.29-.39-.92-1.12-1.9-1.36-1.9-.46-3.94,1.2-4.63,2.99-.53,1.38-.17,2.64,0,3.27.82,2.94,3.47,4.2,3.81,4.35,1.73.79,3.34.66,4.08.54-.57-1.51-1.15-3.54-1.36-5.99-.12-1.42-.09-2.71,0-3.81Z"/>
        <path class="cls-9" d="M172.15,67.36c.19-.19,1.57-1.58,3.54-1.36,2.43.27,3.43,2.72,3.54,2.99,1.02,2.62-.79,5.04-1.09,5.44-.47.63-1.71,2.04-3.81,2.45-1.49.29-2.7-.07-3.27-.27.33-1.47.62-3.1.82-4.9.17-1.56.25-3.02.27-4.35Z"/>
        <path class="cls-5" d="M151.6,77.7c.86,0,2.1-.12,3.5-.62,1.02-.36,1.83-.82,2.43-1.22"/>
        <path class="cls-4" d="M168.7,115.92c.41-1.3.86-2.45,1.17-3.5v-.02c.48-1.59.61-2.99-.27-4.46-2.5-4.23-9.64-4.28-15.41-4.32-5.06-.05-11.85-.09-14.19,3.85-.74,1.25-.68,2.37-.34,3.73.31,1.27.87,2.74,1.23,4.72h27.81Z"/>
        <path class="cls-9" d="M149.63,84.84v2.41c.92.4,2.52.95,4.57.96,1.78,0,3.2-.39,4.09-.72v-2.41c-1.51.05-3.12.06-4.81,0-1.34-.05-2.63-.13-3.85-.24Z"/>
        <path class="cls-11" d="M171.03,115.92c.05-.68,0-1.3-.23-1.96-.2-.56-.51-1.06-.93-1.54v-.02c-4.98-5.77-24.36-6.53-30.21-1.2-.6.53-1.06,1.13-1.34,1.8-.41.95-.41,1.87-.26,2.92h-12.25c.34-1.53.74-3.21,1.2-5.08,1.68-6.85,3.59-14.65,7.17-18.37h.02c.94-1,1.97-1.7,3.17-2.01h.01c.07-.03.15-.06.22-.08,1.25-.31,2.58-.18,5.77-.97,2.7-.67,4.85-1.53,6.26-2.16.46.2,1.09.44,1.86.63.38.09.8.17,1.26.23.22.03.46.05.7.07.12,0,.24.01.36.01.12.01.25.01.38.01.27,0,.53,0,.79-.02.09,0,.19-.01.29-.02s.19-.02.28-.03c.37-.04.72-.09,1.05-.16.17-.03.33-.07.49-.11.14-.03.28-.07.4-.11.05-.01.1-.03.15-.04.12-.04.23-.08.34-.11.11-.04.21-.08.31-.11,1.21.86,3.17,2.07,5.78,2.89,2.07.64,3.43.69,4.59.73h.01c.66.05,1.25.08,1.89.23.56.13,1.12.34,1.62.62h.01c4.38,2.39,6.78,9.8,9.2,17.43.77,2.42,1.45,4.58,2,6.53h-12.36Z"/>
        <path class="cls-8" d="M149.15,54.67c.1.28-2.85.94-5.78,3.61-3.81,3.47-5,7.96-5.29,9.14-1.66,6.63.9,8.69.48,16.12-.49,8.62-4.68,15.52-5.39,15.31-.61-.17,1.42-5.51,2.02-14.35.98-14.55-3.07-19.56.72-24.79,3.94-5.43,13.06-5.52,13.24-5.05Z"/>
        <path class="cls-8" d="M149.15,55c.09,1.14,1.66,2.13,4.81,4.09,3.45,2.15,6.43,3.25,7.46,3.61,6.12,2.16,6.83.89,8.18,2.17,4,3.8-4.18,13.28-1.11,25.58,1.3,5.2,4.12,8.96,4.71,8.75.69-.25-1.85-5.89-1.01-13.79.43-4.01,1.24-4,2.02-8.41.64-3.6,1.92-10.85-1.24-17.89-1.05-2.34-4.23-9.41-10.83-10.59-6.23-1.11-13.22,3.57-12.99,6.5Z"/>
      </g>
      <g>
        <path class="cls-12" d="M63.27,72.9c-.23,4.13-.47,8.65-3.86,12.13-4.19,4.3-9.99,4.21-14.06,4.14-3.98-.07-9.88-.14-14.06-4.69-3.49-3.79-3.72-8.52-3.86-11.58-.11-2.28-.56-12.19,6.07-16.82,3.2-2.23,6.59-2.22,12.13-2.21,6.02.02,9.99.03,13.24,2.76,5.09,4.27,4.65,12.06,4.41,16.27Z"/>
        <circle class="cls-4" cx="35.56" cy="71.11" r="3.72"/>
        <circle cx="36.39" cy="71.66" r="2.9"/>
        <circle class="cls-4" cx="54.04" cy="71.38" r="3.72"/>
        <circle cx="53.21" cy="71.94" r="2.9"/>
        <path class="cls-12" d="M27.43,70.69c-.29-.4-.93-1.14-1.93-1.38-1.92-.46-3.99,1.21-4.69,3.03-.53,1.4-.18,2.67,0,3.31.83,2.98,3.52,4.26,3.86,4.41,1.76.8,3.38.67,4.14.55-.58-1.53-1.17-3.59-1.38-6.07-.12-1.44-.1-2.74,0-3.86Z"/>
        <path class="cls-12" d="M63.41,71.11c.19-.19,1.59-1.6,3.58-1.38,2.46.27,3.48,2.76,3.58,3.03,1.03,2.65-.8,5.1-1.1,5.52-.48.64-1.73,2.07-3.86,2.48-1.51.29-2.74-.07-3.31-.28.33-1.49.63-3.15.83-4.96.18-1.58.26-3.06.28-4.41Z"/>
        <path class="cls-10" d="M40.75,91.34c-2.84.25-6.81,1.1-9.59,4.11-1.92,2.07-2.31,4.07-4.11,9.59-.85,2.61-2.18,6.4-4.11,10.96h9.59c.91-3.65,1.83-7.31,2.74-10.96v10.96h20.55v-10.96c.46,3.65.91,7.31,1.37,10.96h9.59c-1.26-4.06-2.16-7.36-2.74-9.59-1.09-4.2-1-5.17-2.04-7.03-2.36-4.19-6.26-6.11-7.55-6.68-2.19-.97-4.16-1.27-5.48-1.37-.5.36-2.33,1.55-4.82,1.3-1.66-.17-2.85-.9-3.41-1.3Z"/>
        <path class="cls-12" d="M41.58,89.05v2.87c.66.29,1.78.69,3.23.72,1.64.03,2.9-.42,3.58-.72v-2.87h-6.81Z"/>
        <path class="cls-3" d="M33.34,58.23c-1.17,1.03-3.79,3.62-4.94,7.87-.73,2.71-.57,5.04-.36,6.47-.2-.37-.54-.91-1.08-1.44-1.01-.98-2.09-1.26-2.52-1.44-2.43-1.02-2.56-6.61-2.58-7.52-.18-7.69,4.88-13.1,5.74-13.98,1.77-1.84,3.55-2.99,4.75-3.67-.07-.52-.28-2.59,1.08-4.31,1.92-2.44,5.53-2.36,5.64-2.05.04.12-.44.26-1.43,1.08-.96.79-1.59,1.32-1.79,2.15-.18.74-.02,1.68.36,1.79.45.13.84-.98,1.79-1.79,2.14-1.82,5.72-.96,5.74-.72.01.18-1.9.14-4.3,1.43-.56.3-1.51.81-1.43,1.08.15.5,3.73-.45,6.81-.72,1.63-.14,10.36-.9,16.49,4.66,3.56,3.23,4.67,7.17,5.38,9.68,1.51,5.37,1.27,11.8-.88,12.89-.34.18-1.52.61-2.52,1.8-.35.42-.58.82-.72,1.08.21-5.07-1.17-7.42-2.52-8.63-.87-.78-1.49-.86-2.88-2.16-2.46-2.29-3.46-4.75-3.6-4.67-.1.06.38,1.54,1.44,3.24,2.21,3.55,4.93,4.82,4.67,5.39-.16.34-1.36.38-6.11-1.08-.85.22-1.82.37-2.88.36-5.19-.06-8.75-3.92-9.71-5.03.24.66.66,1.6,1.44,2.52,1.41,1.67,2.98,2.12,2.88,2.52-.12.46-2.35.54-4.31,0-1.48-.4-4.81-1.7-7.65-6.79Z"/>
        <path class="cls-6" d="M40.15,78.3h10.39c.34,3.25-2.16,6-5.02,6.09-2.97.1-5.72-2.7-5.38-6.09Z"/>
      </g>
      <g>
        <path class="cls-12" d="M114.69,81.11c-.21,3.75-.42,7.85-3.5,11.01-3.8,3.91-9.06,3.82-12.76,3.75-3.61-.06-8.96-.13-12.76-4.25-3.17-3.44-3.38-7.74-3.5-10.51-.1-2.07-.51-11.06,5.51-15.27,2.9-2.03,5.98-2.02,11.01-2,5.46.02,9.06.03,12.01,2.5,4.62,3.88,4.22,10.94,4,14.77Z"/>
        <circle class="cls-4" cx="89.54" cy="79.48" r="3.38"/>
        <circle cx="90.29" cy="79.98" r="2.63"/>
        <circle class="cls-4" cx="106.31" cy="79.73" r="3.38"/>
        <circle cx="105.56" cy="80.23" r="2.63"/>
        <path class="cls-12" d="M82.16,79.11c-.27-.36-.84-1.03-1.75-1.25-1.75-.42-3.62,1.1-4.25,2.75-.48,1.27-.16,2.43,0,3,.75,2.7,3.19,3.86,3.5,4,1.59.73,3.07.6,3.75.5-.52-1.39-1.06-3.26-1.25-5.51-.11-1.31-.09-2.49,0-3.5Z"/>
        <path class="cls-12" d="M114.82,79.48c.17-.18,1.45-1.45,3.25-1.25,2.23.24,3.16,2.5,3.25,2.75.94,2.41-.72,4.63-1,5.01-.43.58-1.57,1.88-3.5,2.25-1.37.26-2.49-.06-3-.25.3-1.35.57-2.86.75-4.5.16-1.43.23-2.78.25-4Z"/>
        <path class="cls-12" d="M95.8,95.95c-.13.66-.26,1.31-.39,1.97.53.29,1.49.71,2.76.79,1.7.1,2.99-.49,3.55-.79-.13-.66-.26-1.31-.39-1.97h-5.52Z"/>
        <path class="cls-1" d="M111.35,115.92c-.46-2.71-.91-5.43-1.37-8.15.2,2.71.39,5.44.6,8.15h-23.64c.19-2.71.39-5.44.6-8.15-.35,2.71-.72,5.44-1.07,8.15h-7.13c3.87-7.64,7.2-12.99,8.76-14.81.9-1.04,2.36-2.28,3.77-2.79.77-.28,1.57-.39,1.57-.39.81-.11,1.51-.07,1.97,0,.54.28,1.49.72,2.77.79,1.7.09,2.98-.49,3.54-.79.64.15,1.59.34,2.77.39.83.14,1.48.01,1.57,0,1.52-.27,3.74,2.79,3.74,2.79,1.79,2.46,5.71,7.72,10.77,14.81h-9.21Z"/>
        <path class="cls-3" d="M80.43,77.83c-.25-.21-1.84-2.01-1.58-6.3.31-5.07,2.91-8.73,3.15-9.06,3.45-4.73,8.35-6.17,10.24-6.7,4.32-1.2,7.86-.64,10.33-.22,3.35.57,8.06,1.38,11.74,5.34,2.18,2.35,3.02,4.76,3.55,6.3,1.82,5.37.86,10.31-.39,11.03-.04.03-.47.26-1.05.54-.63.29-1.17.5-1.58.64-.19-4.73-1.41-6.21-2.49-6.7-1.75-.79-3.86.73-5.02-.39-1.03-1-.18-3.07-.79-3.22-.69-.17-1.51,3.08-4.74,4.51-1.68.75-3.86.93-4.35.32-.59-.73,1.67-2.05,1.58-4.51-.03-.8-.31-1.88-.79-1.93-.96-.1-.83,4.1-3.95,5.48-1.97.87-3.41-.18-7.51.97-1.49.42-2.08.77-2.37.97-1.94,1.3-2.29,3.33-2.37,4.19-.07-.09-.18-.21-.31-.32-.2-.17-.38-.26-.48-.32,0,0-.19-.11-.8-.61Z"/>
        <ellipse class="cls-6" cx="98.36" cy="88.27" rx="1.77" ry="2.56"/>
      </g>
    </g>
  </g>
</svg>