<?xml version="1.0" encoding="UTF-8"?>
<svg id="Layer_2" data-name="Layer 2" xmlns="http://www.w3.org/2000/svg" viewBox="0 0 687.32 166.47">
  <defs>
    <style>
      .cls-1 {
        fill: #83a8b9;
      }

      .cls-2 {
        fill: #c6e2e9;
      }

      .cls-3 {
        fill: #a7bed3;
      }
    </style>
  </defs>
  <g id="Layer_1-2" data-name="Layer 1">
    <g>
      <ellipse class="cls-2" cx="343.66" cy="83.23" rx="343.66" ry="83.23"/>
      <ellipse class="cls-3" cx="349.21" cy="81.68" rx="276.19" ry="66.89"/>
      <path class="cls-1" d="M591.11,114.12c-22.83.49-60.18-.16-105.21-8.22-87.25-15.62-106.67-41.77-189.96-51.06-41.78-4.66-79.1-2.79-114.38-1.02-40.22,2.02-74.3,6.23-100.09,10.21,5.33-3.41,13.79-8.61,24.51-14.3,19.96-10.59,56.52-27.51,113.97-37.79C310.72-4.3,438.03-.94,558,38.49c38.79,12.75,67.57,26.36,67.69,43.19.1,14.47-21.01,26.19-34.58,32.43Z"/>
    </g>
  </g>
</svg>