<?xml version="1.0" encoding="UTF-8"?>
<svg id="Layer_2" data-name="Layer 2" xmlns="http://www.w3.org/2000/svg" viewBox="0 0 490.94 279.88">
  <defs>
    <style>
      .cls-1 {
        fill: #efb3ff;
      }

      .cls-2 {
        fill: #f3ffc3;
      }

      .cls-3 {
        fill: #b39fff;
        opacity: .71;
      }

      .cls-4 {
        fill: #c9a4ff;
      }

      .cls-5 {
        fill: #614700;
      }

      .cls-6 {
        fill: #ffce9a;
      }

      .cls-7 {
        fill: #9b98ff;
      }

      .cls-8 {
        fill: #b9b3ff;
      }
    </style>
  </defs>
  <g id="Layer_1-2" data-name="Layer 1">
    <g>
      <path class="cls-8" d="M57.91,113.03c-10.32-45.34-15.48-68.01-10.5-80.5C53.94,16.14,77.27-.83,242.91.03c169.67.88,193.4,18.95,199.5,35.5,3.09,8.39-1.11,30.42-9.5,74.5-4.01,21.04-7.85,38.2-10.5,49.5-52.62-7.21-113.46-12.26-181-12-63.46.24-120.89,5.13-171,12-3.31-10.63-7.99-26.69-12.5-46.5Z"/>
      <path class="cls-3" d="M57.91,113.03c6.45-32.51,134.64-30.78,192-30,65.1.88,175.67,2.38,182,34,3.05,15.22-19.04,32.5-32,40-44.84,25.96-77.24-7.81-159-9-77.75-1.13-109.56,28.53-153,2-4.88-2.98-33.21-20.81-30-37Z"/>
      <path class="cls-8" d="M37.41,242.53c-1.18-.82-2.98-2.15-5-4-14.82-13.59-11.94-28.51-20-57-7.34-25.94-15.82-35.09-11-51,.98-3.23,2.54-8.15,7-12,7.77-6.69,17.63-4.34,37-3,31.62,2.18,32.58-2.22,39,2,10.42,6.85,11.04,20.51,14,61,1,13.67,2.67,35.83,5,64H37.41Z"/>
      <path class="cls-8" d="M453.53,242.53c1.18-.82,2.98-2.15,5-4,14.82-13.59,11.94-28.51,20-57,7.34-25.94,15.82-35.09,11-51-.98-3.23-2.54-8.15-7-12-7.77-6.69-17.63-4.34-37-3-31.62,2.18-32.58-2.22-39,2-10.42,6.85-11.04,20.51-14,61-1,13.67-2.67,35.83-5,64h66Z"/>
      <path class="cls-1" d="M393.89,208.53H95.93c-9.12,0-16.52-7.4-16.52-16.52v-19.96c0-9.12,7.4-16.52,16.52-16.52,43.9-4.73,92.63-7.87,145.48-8,55.6-.14,106.7,3.07,152.48,8,1.1,0,6.95.11,11.68,4.84,2.99,2.99,4.84,7.12,4.84,11.68v19.96c0,9.12-7.4,16.52-16.52,16.52Z"/>
      <rect class="cls-4" x="84.41" y="208.53" width="318" height="34" rx="8.89" ry="8.89"/>
      <path class="cls-7" d="M447.43,115.55c-5.66,2.05-14.47,6.08-23,14-12.39,11.5-17.17,24.71-19,31-.6-.79-2.55-3.15-6-4-2.17-.53-4-.24-5,0,.06-5.4.48-10.12,1-14,.89-6.69,1.5-10.97,4-16,1.74-3.5,4.15-8.36,9-10,2.1-.71,3.18-.32,8,0,3.87.26,7.58.17,15,0,3.99-.09,9.44-.34,16-1Z"/>
      <path class="cls-6" d="M100.41,50.53c15.34-3.27,23.36,3.52,40,4,8.78.25,24.58-1.12,40-9,8.58-4.38,13.66-9.05,17-7,3.66,2.25,1.26,10.11,0,22-1.53,14.41-4.53,42.78,7,66,3.29,6.63,7.21,11.72,5,16-2.37,4.59-9.88,4.54-20,5-40.32,1.83-60.49,2.74-75,8-3.37,1.22-7.22,2.84-10,1-6.2-4.11,3.87-18.21,2-40-.88-10.22-5.49-35.18-14-50-.92-1.59-3.62-6.1-2-10,1.52-3.66,6.18-5.18,10-6Z"/>
      <path class="cls-2" d="M172.15,74.12c11.02-1.45,16.31,3.8,28.03,5.08,6.19.67,17.43.59,28.76-4.11,6.31-2.61,10.16-5.63,12.4-3.99,2.46,1.79.32,7.21-1.24,15.54-1.89,10.1-5.61,29.96,1.23,47.02,1.95,4.87,4.44,8.68,2.63,11.58-1.94,3.11-7.23,2.65-14.41,2.41-28.59-.98-42.88-1.47-53.43,1.43-2.45.67-5.26,1.6-7.12.14-4.15-3.25,3.76-12.65,3.66-28.14-.04-7.27-1.9-25.16-7.08-36.11-.56-1.18-2.21-4.51-.85-7.18,1.28-2.5,4.66-3.31,7.4-3.68Z"/>
      <path class="cls-6" d="M340.12,61.61c12.54,1.16,17.06,8.29,29.7,12.64,6.67,2.3,19.1,5.02,32.81,2.67,7.62-1.31,12.63-3.67,14.7-1.3,2.27,2.6-1.45,8.05-5.26,16.86-4.62,10.68-13.71,31.7-10.43,52.25.94,5.87,2.72,10.7,0,13.46-2.92,2.95-8.65,1.12-16.52-.95-31.34-8.25-47.01-12.37-59.39-11.81-2.87.13-6.21.45-7.9-1.63-3.77-4.63,7.32-13.03,11.1-30.17,1.77-8.04,4.21-28.27,1.23-41.67-.32-1.44-1.31-5.54.86-8.14,2.04-2.44,5.97-2.49,9.1-2.21Z"/>
      <path class="cls-5" d="M77.91,243.03c-.62,4.72-1.55,10.86-3,18-1.93,9.51-3.25,13.22-1,16,2.45,3.02,7.98,3.56,12,2,5.19-2.02,6.55-7.03,12-18,2.23-4.48,5.51-10.7,10-18h-30Z"/>
      <path class="cls-5" d="M414.75,243.03c.62,4.72,1.55,10.86,3,18,1.93,9.51,3.25,13.22,1,16-2.45,3.02-7.98,3.56-12,2-5.19-2.02-6.55-7.03-12-18-2.23-4.48-5.51-10.7-10-18,10,0,20,0,30,0Z"/>
      <path class="cls-7" d="M42.91,115.03c5.66,2.05,14.47,6.08,23,14,12.39,11.5,17.17,24.71,19,31,.6-.79,2.55-3.15,6-4,2.17-.53,4-.24,5,0-.06-5.4-.48-10.12-1-14-.89-6.69-1.5-10.97-4-16-1.74-3.5-4.15-8.36-9-10-2.1-.71-3.18-.32-8,0-3.87.26-7.58.17-15,0-3.99-.09-9.44-.34-16-1Z"/>
    </g>
  </g>
</svg>