<?xml version="1.0" encoding="UTF-8"?>
<svg id="Layer_2" data-name="Layer 2" xmlns="http://www.w3.org/2000/svg" viewBox="0 0 1366 768">
  <defs>
    <style>
      .cls-1 {
        fill: #dae7ec;
      }

      .cls-2 {
        fill: #9aa2ff;
      }

      .cls-3 {
        fill: #fdffff;
      }

      .cls-4 {
        fill: #aed9ff;
      }

      .cls-5 {
        fill: #b0bfbe;
      }

      .cls-6 {
        fill: none;
        stroke: #c0cdc4;
      }

      .cls-6, .cls-7 {
        stroke-miterlimit: 10;
      }

      .cls-8 {
        fill: #d7ecff;
      }

      .cls-9 {
        fill: #ebfffd;
      }

      .cls-10 {
        fill: #a3adb1;
      }

      .cls-11 {
        fill: #9cc0a8;
      }

      .cls-12 {
        fill: #ff99ae;
      }

      .cls-13 {
        fill: #ffeb99;
      }

      .cls-7 {
        fill: #d39a55;
        stroke: #c38055;
      }

      .cls-14 {
        fill: #76807f;
      }
    </style>
  </defs>
  <g id="Layer_1-2" data-name="Layer 1">
    <rect class="cls-4" width="1366" height="651"/>
    <rect class="cls-10" x="246.5" y="39.87" width="550.5" height="206.13"/>
    <rect class="cls-1" x="0" y="646" width="1366" height="122"/>
    <path class="cls-14" d="M1133,669c14-7.33,28-14.67,42-22-.17-149.67-.33-299.33-.5-449-13.5,4.67-27,9.33-40.5,14-.33,152.33-.67,304.67-1,457Z"/>
    <rect class="cls-8" x="261.4" y="49.81" width="522.35" height="187.09"/>
    <rect class="cls-9" x="914" y="212" width="220" height="457"/>
    <rect class="cls-5" x="938" y="251" width="170" height="110"/>
    <rect class="cls-5" x="938" y="388" width="170" height="110"/>
    <rect class="cls-5" x="938" y="525" width="170" height="108"/>
    <rect class="cls-11" x="971.83" y="387.94" width="136" height="75"/>
    <path class="cls-3" d="M782.75,119.41c-6.47,1.54-11.55,3.9-14.75,5.59-.94-1.69-18.83-32.59-55-34-23.9-.93-46.56,11.37-59,32-4.72-2.98-15.32-8.73-29-8-17.87.96-37.11,12.78-36,22,.19,1.54,1.52,7.88,20,13,57.92.84,115.83,1.68,173.75,2.52"/>
    <rect class="cls-11" x="970.83" y="250.94" width="136" height="81"/>
    <g>
      <path class="cls-7" d="M425.1,236.89v-46.95c-6.68-7.35-13.37-14.7-20.05-22.06-6.35,7.69-12.7,15.38-19.05,23.06v45.95"/>
      <path class="cls-7" d="M425.1,236.89v-45.57c6.35-7.65,12.7-15.29,19.05-22.94,6.68,7.32,13.37,14.63,20.05,21.94v46.57"/>
      <path class="cls-7" d="M503.3,236.89v-46.95c-6.68-7.35-13.37-14.7-20.05-22.06-6.35,7.69-12.7,15.38-19.05,23.06v45.95"/>
      <path class="cls-7" d="M542.4,236.89v-46.95c-6.68-7.35-13.37-14.7-20.05-22.06-6.35,7.69-12.7,15.38-19.05,23.06v45.95"/>
      <path class="cls-7" d="M581.5,236.89v-46.57c-6.68-7.31-13.37-14.62-20.05-21.94-6.35,7.65-12.7,15.29-19.05,22.94v45.57"/>
      <path class="cls-7" d="M581,236.89v-45.89c.17-.2.34-.41.5-.61,6.17-7.47,12.34-14.92,18.5-22.39,6.67,7.33,13.33,14.67,20,22v46.89"/>
      <path class="cls-7" d="M659,236.89v-46.89c-6.67-7.33-13.33-14.67-20-22-6.33,7.67-12.67,15.33-19,23v45.89"/>
      <path class="cls-7" d="M698,236.89v-46.51c-6.67-7.29-13.33-14.59-20-21.88-6.33,7.62-12.67,15.25-19,22.87v45.52"/>
      <path class="cls-7" d="M737,236.89v-46.89c-6.67-7.33-13.33-14.67-20-22-6.33,7.67-12.67,15.33-19,23v45.89"/>
      <path class="cls-7" d="M776,236.89v-46.89c-6.67-7.33-13.33-14.67-20-22-6.33,7.67-12.67,15.33-19,23v45.89"/>
    </g>
    <path class="cls-5" d="M914,212c16.67-4.67,33.33-9.33,50-14h214c-14.67,4.67-29.33,9.33-44,14h-220Z"/>
    <path class="cls-3" d="M280,116c6.65,6.5,13.29,4.94,47,5,35.24.06,42.62,1.79,49-5,7.67-8.17,9.84-24.36,2-32-7.6-7.4-24.56-6.73-37,6-2.11-15.69-14.52-28.04-30-30-16.6-2.1-31.88,8.35-37,23-3.77,10.8-2.35,24.85,6,33Z"/>
    <path class="cls-2" d="M180,190c-.22-2.5,8.42-5.7,15-7,16.4-3.23,20.96,3.01,31,0,11.51-3.45,10.66-11.54,22-14,10.14-2.2,19.13,2.47,24,5,9.1,4.72,24.48,16.61,22,23-2.02,5.2-14.34,2.9-70.17-1.06-28.66-2.03-43.55-2.71-43.83-5.94Z"/>
    <path class="cls-12" d="M261,170c.55-1.74,7.88,1.53,17-3,8.47-4.21,8.95-10.42,15-11,5.4-.51,6.35,4.32,16,8,9.61,3.66,13.15.58,18,4,7.37,5.19,10.3,20.09,5,26-12.43,13.86-72.61-18.95-71-24Z"/>
    <path class="cls-13" d="M274,198c-1.19-4.14,9.03-12.43,19-15,6.8-1.76,8.17.52,19,0,10.18-.49,18.64-2.97,29-6,11.2-3.28,13.8-5.08,19-4,6.58,1.36,14.31,6.71,14,11-1.05,14.66-96.67,25.58-100,14Z"/>
    <path class="cls-6" d="M938,498c9-5.67,18-11.33,27-17"/>
    <path class="cls-6" d="M938,633c11.33-10.67,22.67-21.33,34-32"/>
    <rect class="cls-11" x="972.33" y="525.44" width="136" height="75"/>
  </g>
</svg>