<?xml version="1.0" encoding="UTF-8"?>
<svg id="Layer_2" data-name="Layer 2" xmlns="http://www.w3.org/2000/svg" viewBox="0 0 270 166.06">
  <defs>
    <style>
      .cls-1 {
        fill: #273440;
      }

      .cls-2 {
        fill: #4d6880;
      }
    </style>
  </defs>
  <g id="Layer_1-2" data-name="Layer 1">
    <g>
      <path class="cls-2" d="M227,161.06c-26.6,2.91-56.07,4.85-88,5-35.07.17-67.25-1.86-96-5C28.67,117.06,14.33,73.06,0,29.06c37.09,6.65,81.98,11.87,133,12,52.74.14,99.02-5.19,137-12-14.33,44-28.67,88-43,132Z"/>
      <path class="cls-1" d="M0,29.06C-.2,15.67,68.43,1.04,128,.06c67.59-1.12,142.21,15.01,142,29-.21,14.06-76.01,26.35-138,26C72.98,54.73.21,42.8,0,29.06Z"/>
      <path class="cls-2" d="M270,29.06c-5.33,34-10.67,68-16,102-1.31,3.92-3.66,9.41-8,15-6.68,8.6-14.58,12.97-19,15"/>
      <path class="cls-2" d="M.18,29.24c5.33,34,10.67,68,16,102,1.31,3.92,3.66,9.41,8,15,6.68,8.6,14.58,12.97,19,15"/>
    </g>
  </g>
</svg>