<?xml version="1.0" encoding="UTF-8"?>
<svg id="Layer_2" data-name="Layer 2" xmlns="http://www.w3.org/2000/svg" viewBox="0 0 120.16 375.7">
  <defs>
    <style>
      .cls-1 {
        fill: #fff;
      }

      .cls-2 {
        fill: #cccde2;
      }

      .cls-3 {
        fill: #ff6579;
      }

      .cls-4 {
        fill: #e2d3cc;
      }
    </style>
  </defs>
  <g id="Layer_1-2" data-name="Layer 1">
    <g>
      <path class="cls-4" d="M45.17,268.38C30.17,182.05,15.17,95.71.17,9.38-.46,6.29.72,3.14,3.17,1.38,6.25-.84,9.79.26,10.17.38l45,264c-3.33,1.33-6.67,2.67-10,4Z"/>
      <path class="cls-2" d="M20.85,297.08c4.09-11.9,8.18-23.83,20.02-32.79,3.24-2.45,15.16-10.88,31.98-10.12,12.91.58,28.88,6.58,36.31,19.13,1.99,3.37,3.33,7.91,6,17,2.54,8.65,4.08,15.96,5,21-.66.83-1.65,1.78-3,2-1.41.23-2.09-.51-3,0-1.21.68-.76,2.43-2,3-.78.36-1.14-.26-2,0-1.74.52-1.42,3.39-3,4-1.45.56-2.6-1.52-4-1-1.73.64-1.05,4.19-3,5-1.18.49-1.97-.6-3,0-1.4.81-.6,3.2-2,4-1.02.58-1.77-.5-3,0-1.82.73-1.48,3.6-3,4-1.19.31-1.89-1.31-3-1-1.6.45-1,4.11-3,5-1.17.52-1.83-.52-3,0-1.9.85-1.1,4-3,5-1.44.76-2.52-.74-4,0-2.01,1-1.26,4.37-3,5-1.44.52-2.59-1.54-4-1-1.71.66-.99,4.08-3,5-1.15.53-1.69-.45-3,0-2.25.78-1.75,4.05-4,5-1.65.69-2.57-.78-4,0-1.76.96-.91,3.5-3,5-1.15.82-1.52.14-3,1-2.31,1.34-2.07,3.38-4,4-1.39.45-1.84-.5-3,0-1.83.79-.79,3.59-3,5-1.71,1.09-3.23.65-5,2-1.32,1.01-1.97,2.39-2.31,3.4-5.88-13.98-8.96-25.87-10.69-34.4-.99-4.9-1.75-8.71-2-14-.15-3.06-.53-15.04,4.69-30.22Z"/>
      <path class="cls-1" d="M23.16,334.3c4.33,12,8.67,24,13,36"/>
      <path class="cls-1" d="M29.56,329.03c4.33,12,8.67,24,13,36"/>
      <path class="cls-1" d="M36.56,324.03c4.33,12,8.67,24,13,36"/>
      <path class="cls-1" d="M43.56,319.03c4.33,12,8.67,24,13,36"/>
      <path class="cls-1" d="M50.56,314.03c4.33,12,8.67,24,13,36"/>
      <path class="cls-1" d="M57.56,310.03c4.33,12,8.67,24,13,36"/>
      <path class="cls-1" d="M64.56,305.03c4.33,12,8.67,24,13,36"/>
      <path class="cls-1" d="M70.56,300.03c4.33,12,8.67,24,13,36"/>
      <path class="cls-1" d="M76.56,296.03c4.33,12,8.67,24,13,36"/>
      <path class="cls-1" d="M82.56,292.03c4.33,12,8.67,24,13,36"/>
      <path class="cls-1" d="M87.56,288.03c4.33,12,8.67,24,13,36"/>
      <path class="cls-1" d="M94.56,284.03c4.33,12,8.67,24,13,36"/>
      <path class="cls-1" d="M99.56,280.03c4.33,12,8.67,24,13,36"/>
      <path class="cls-1" d="M104.56,277.03c4.33,12,8.67,24,13,36"/>
      <path class="cls-3" d="M12.16,341.3c-.75-9.01-.92-25.35,6-44,6.08-16.38,15.08-27.64,21-34-1.61-3.96-3.12-9.02-1-11,.96-.9,1.93-.49,4-1,6.01-1.49,7.58-7.36,10-7,1.26.19,2.92,2.1,4,11,4.1-1.57,14.39-4.86,27-2,16.82,3.82,25.82,15.9,28,19L12.16,341.3Z"/>
    </g>
  </g>
</svg>