<?xml version="1.0" encoding="UTF-8"?>
<svg id="Layer_2" data-name="Layer 2" xmlns="http://www.w3.org/2000/svg" viewBox="0 0 307.81 418.14">
  <defs>
    <style>
      .cls-1 {
        fill: #a4a4a4;
      }

      .cls-2 {
        fill: #fff;
      }

      .cls-3 {
        fill: #6e6e6e;
      }

      .cls-4 {
        stroke: #fff;
      }

      .cls-4, .cls-5 {
        fill: none;
        stroke-miterlimit: 10;
      }

      .cls-6 {
        fill: #dbdbdb;
      }

      .cls-7 {
        fill: #c0c8ff;
      }

      .cls-5 {
        stroke: #f8f8f8;
      }

      .cls-8 {
        fill: #f8f8f8;
      }
    </style>
  </defs>
  <g id="Layer_1-2" data-name="Layer 1">
    <g>
      <rect class="cls-6" x=".5" y="41.63" width="261" height="376.45" rx="14.5" ry="14.5"/>
      <rect class="cls-8" x="28.5" y="187.07" width="205" height="150"/>
      <line class="cls-4" y1="371.07" x2="261" y2="371.07"/>
      <rect class="cls-7" x="22.5" y="66.07" width="65" height="45"/>
      <path class="cls-1" d="M.5,54.07c.15-1.18.43-2.94,1-5,3.08-11.09,10.16-14.97,26-29C41.88,7.33,46.98.84,57.5.07c1.67-.12,3.06-.07,4,0,132.7,0,229.48.1,233,0,1.06-.03,2.94.06,5,1,1.35.62,2.35,1.39,3,2-15.33,14-30.67,28-46,42-.62-.34-1.29-.68-2-1-2.56-1.14-4.97-1.71-7-2-129.78-1.26-224.99-1.35-233,0-5.5.93-9,4-9,4-2.9,2.55-4.29,5.74-5,8Z"/>
      <path class="cls-3" d="M256.5,45.07c7.17-7.2,14.83-14.56,23-22,7.81-7.11,15.49-13.77,23-20,.99.74,2.83,2.33,4,5,.68,1.56.92,2.98,1,4v350c.3,1.93.52,4.74,0,8-1.32,8.27-6.27,12.14-20,25-17.02,15.94-22.53,22.26-33,23-1.67.12-3.05.07-4,0,1.51-.61,4.42-2.01,7-5,2.71-3.14,3.65-6.4,4-8V54.07c-.08-1.02-.32-2.44-1-4-1.17-2.67-3.01-4.26-4-5Z"/>
      <path class="cls-5" d="M208.5,231.07c-2.2,5.86-4.92,15.23-5,27-.08,12.29,2.76,22.04,5,28"/>
      <path class="cls-2" d="M261.5,371.07c15.33-12.33,30.67-24.67,46-37"/>
      <rect class="cls-7" x="98.5" y="66.07" width="65" height="45"/>
      <rect class="cls-7" x="176.5" y="66.07" width="65" height="45"/>
    </g>
  </g>
</svg>