<?xml version="1.0" encoding="UTF-8"?>
<svg id="Layer_2" data-name="Layer 2" xmlns="http://www.w3.org/2000/svg" viewBox="0 0 132.5 376">
  <defs>
    <style>
      .cls-1 {
        fill: #fff;
      }

      .cls-2 {
        fill: #73bf83;
      }

      .cls-3 {
        fill: #61b783;
      }

      .cls-4 {
        fill: #e2d3cc;
      }

      .cls-5 {
        fill: #a77b66;
      }

      .cls-6 {
        fill: #4d8058;
      }
    </style>
  </defs>
  <g id="Layer_1-2" data-name="Layer 1">
    <g>
      <path class="cls-1" d="M66.5,281c.45-.37,4.44-3.58,11-3.41,5.97.15,9.47,2.97,10,3.41"/>
      <path class="cls-2" d="M117.24,376H0c7.11-14.33,14.21-28.67,21.32-43h110.68c-4.92,14.33-9.84,28.67-14.76,43Z"/>
      <rect class="cls-3" x="21.5" y="305" width="111" height="28"/>
      <path class="cls-4" d="M84.5,305h-14V2c1-.62,3.51-2,7-2,1.18,0,4.04.16,7,2v303Z"/>
      <path class="cls-6" d="M117.5,376c5-23.51,10-47.02,15-70.53v28c-5,14.18-10,28.35-15,42.53Z"/>
      <path class="cls-5" d="M66.5,281c2.16.85,5.63,1.92,10,2,4.89.09,8.74-1.11,11-2,.33,8,.67,16,1,24h-22v-24Z"/>
    </g>
  </g>
</svg>