<?xml version="1.0" encoding="UTF-8"?>
<svg id="Layer_2" data-name="Layer 2" xmlns="http://www.w3.org/2000/svg" viewBox="0 0 212.03 511.32">
  <defs>
    <style>
      .cls-1 {
        fill: #ffe48b;
      }

      .cls-2 {
        fill: #ffc666;
      }

      .cls-3 {
        fill: #dcc2a4;
      }

      .cls-4 {
        fill: #fff;
      }

      .cls-5 {
        fill: #3c342d;
      }

      .cls-6 {
        fill: #f0d0b4;
      }

      .cls-7 {
        fill: #383e60;
      }

      .cls-8 {
        fill: #4b5280;
      }
    </style>
  </defs>
  <g id="Layer_1-2" data-name="Layer 1">
    <g>
      <path class="cls-2" d="M81.6,472.02c2.48,7.92,2.98,14.74,2.87,19.79-.16,7.66-.27,12.84-4.3,15.96-.63.49-1.42.86-1.42.86-1.18.61-2.28,1.19-2.89,1.05-2.08-.46,0-9.45-2.15-10.21-1.99-.7-4.15,6.79-12.19,10.21-5.52,2.35-12.64,1.99-18.37.15-.58-.19-1.13-.45-1.72-.79-5.91-3.49-8.65-11.68-5.74-15.32,1.21-1.52,2.81-1.51,10.04-3.19,8.03-1.87,12.05-2.8,13.63-3.83,3.71-2.42,5.77-9.51-1.43-30"/>
      <path class="cls-2" d="M99.42,470.96c-2.48,7.53-2.98,14.01-2.87,18.81.16,7.28.27,12.21,4.3,15.17.63.46,1.42.82,1.42.82,1.18.58,2.28,1.13,2.89,1,2.08-.44,0-8.98,2.15-9.71,1.99-.67,4.15,6.45,12.19,9.71,5.52,2.23,12.64,1.89,18.37.15.58-.18,1.13-.42,1.72-.75,5.91-3.32,8.65-11.1,5.74-14.56-1.21-1.44-2.81-1.44-10.04-3.03-8.03-1.77-12.05-2.66-13.63-3.64-3.71-2.3-5.77-9.04,1.43-28.52"/>
      <path class="cls-5" d="M109.02,2.82c5.75-1.94,14.76-4.01,25-2,26.13,5.14,39.47,32.77,42,38,17.83,36.91-.36,67.97,21,85,6.74,5.37,14.66,7.15,15,13,.54,9.27-18.65,17.2-23,19-8.94,3.69-26.56,9.01-52,4"/>
      <path class="cls-6" d="M155.02,111.82c-.85,14.97-1.7,31.36-14,44-15.19,15.61-36.22,15.25-51,15-14.42-.24-35.81-.51-51-17-12.66-13.74-13.49-30.91-14-42-.38-8.28-2.04-44.2,22-61,11.6-8.1,23.89-8.06,44-8,21.82.07,36.22.11,48,10,18.46,15.49,16.86,43.72,16,59Z"/>
      <circle class="cls-4" cx="54.52" cy="105.32" r="13.5"/>
      <circle cx="57.52" cy="107.32" r="10.5"/>
      <circle class="cls-4" cx="121.52" cy="106.32" r="13.5"/>
      <circle cx="118.52" cy="108.32" r="10.5"/>
      <path class="cls-6" d="M25.02,103.82c-1.06-1.45-3.37-4.13-7-5-6.98-1.68-14.48,4.39-17,11-1.93,5.07-.64,9.7,0,12,3.01,10.79,12.76,15.43,14,16,6.37,2.91,12.27,2.42,15,2-2.1-5.56-4.23-13.03-5-22-.45-5.23-.35-9.95,0-14Z"/>
      <path class="cls-6" d="M155.52,105.32c.68-.7,5.78-5.79,13-5,8.93.98,12.61,10.01,13,11,3.74,9.62-2.89,18.51-4,20-1.73,2.32-6.28,7.51-14,9-5.46,1.05-9.93-.25-12-1,1.2-5.39,2.27-11.41,3-18,.64-5.73.93-11.09,1-16Z"/>
      <path class="cls-7" d="M7.02,446.82c-.52,3.56,5.64,8.43,11,10,4.89,1.43,7.34-.41,16,1,2.42.39,5.13.84,8,2,9.74,3.95,11.7,13.57,14,13,3.06-.76,6.21-19.1-3.17-29.06-13.23-14.06-44.75-4.39-45.83,3.06Z"/>
      <path class="cls-7" d="M191.02,471.82c-.16.95-9.32-3.08-21,1-10.4,3.64-12.35,10.05-23,12-5.23.96-12.88.9-14-2-1.31-3.39,6.39-10.43,13.83-14.06,19.77-9.65,44.43,1.5,44.17,3.06Z"/>
      <path class="cls-5" d="M33.02,163.82c-8.33-43.59-1.43-59.65,7-66,4.41-3.32,14.21-7.73,20-19,2.78-5.42,3.68-10.57,4-14,12.51,13.97,23.98,18.44,32,20,18.67,3.63,28.41-2.55,38,2,10.05,4.77,18.99,22.23,13,79,35.38-39.07,32.1-97.24-2-128-29.29-26.42-77.56-29.32-108-4C3.89,61.38-1.96,119.91,33.02,163.82Z"/>
      <path class="cls-8" d="M66.86,169.88c-2.54,1.52-6.57,3.61-11.84,4.94-6.13,1.55-8.61.72-12,2-7.66,2.89-10.6,12.96-12,18-5.28,18.98-.09,36.86,1,40,6.26,18.03,15.29,51.87,10,94-4.02,32.02-14.78,56.67-23,72-9.84,27.15-16.21,42.28-10,48,7.52,6.92,25.06-7.7,37,1,9.27,6.76,4.01,19.28,13,25,9.12,5.81,17.35-5.87,36-4,17.71,1.77,19.91,13.26,34,12,12.92-1.15,15.33-11.19,30-15,12.41-3.23,24.13.45,32,4-5.1-15.42-13.25-39.53-24-69-16.07-44.07-21.45-54.88-25-74-3.74-20.14-5.68-50.72,6-91,1.44-4.97,6.49-17.51,4-33-.22-1.39-4.11-24.14-16-27-4.04-.97-6.85.87-13-1-4.66-1.42-8.04-3.99-10.16-5.94,4.13,13.11-.36,26.26-9.84,31.94-9.66,5.79-20.31,1.3-21,1-11.05-4.87-17.7-18.73-15.16-33.94Z"/>
      <path class="cls-1" d="M86.02,16.82c2.85-10.4,13.4-16.45,23-14,8.49,2.17,14.59,10.57,14,20-3.98-2.08-10.11-4.72-18-6-7.91-1.28-14.56-.72-19,0Z"/>
      <path class="cls-6" d="M38.02,178.82c-9.93,2.26-11.58,26.01-12,32-.59,8.45.27,14.75,2,27,2.68,18.94,4.02,28.41,7,32,1.03,1.24,2.07,2.2,3.25,2.96,19.54,12.47,47.05,7.98,55.75,6.04,15.8-3.51,19.45-7.98,21-11,.37-.72,2.89-5.81,1-11-2.53-6.94-11.21-9.27-18-11-7.32-1.86-20.91-3.99-39,1-5.68-14.98-6.4-26.89-6-35,.52-10.58,3.13-18.75-2-26-2.72-3.84-8.18-8.1-13-7Z"/>
      <path class="cls-3" d="M56.85,266.76c.13,1.63,4.48,2.95,8,3,4.21.07,6.09-1.7,11-3,3.08-.64,6.8-1.11,11-1,10.97.27,19.37,4.28,24,7,2.57-1.73,3.03-3.1,3-4-.18-5.83-21.19-12.24-40-9-7.59,1.31-17.19,4.52-17,7Z"/>
      <path class="cls-6" d="M142.02,180.82c12.12,5.64,12.82,25.71,13,31,.36,10.53-2.15,12.68-6,32-5.41,27.17-2.2,31.76-7,35-12.51,8.44-34.29-23.07-63-16-9.99,2.46-16.87,8.61-22,5-4.79-3.37-5.08-13.16-1.74-19.77,6.97-13.77,29.52-13.29,33.74-13.23,13.56.17,23.85,5.69,29.26,9.23,4.33-14.28,5.67-26.25,6-35,.53-13.93-1.3-24.13,4.74-28.23,5.18-3.52,12.64-.17,13,0Z"/>
      <path class="cls-5" d="M44.02,83.82c.73,1.95,7.62-1.44,16,2,3.8,1.56,6.13,3.78,7,3,.87-.78-.4-3.9-2-6-2.77-3.63-8.41-6.63-14-5-3.93,1.14-7.57,4.49-7,6Z"/>
      <path class="cls-5" d="M132.86,84.63c-.73,1.95-7.62-1.44-16,2-3.8,1.56-6.13,3.78-7,3-.87-.78.4-3.9,2-6,2.77-3.63,8.41-6.63,14-5,3.93,1.14,7.57,4.49,7,6Z"/>
      <path class="cls-4" d="M80.02,143.82c2.1-.82,5.18-1.75,9-2,4.23-.28,7.71.38,10,1"/>
      <path class="cls-6" d="M66.85,168.76c-.61,1.48-4.8,12.14,1,23,6.78,12.7,20.95,13.93,22,14,1.96.14,12.65.88,20-7,6.75-7.23,8-18.84,3-29-6.76.74-14.48,1.18-23,1-8.54-.18-16.27-.97-23-2Z"/>
      <path class="cls-3" d="M66.85,169.76c.5,1.6,3.67,11.3,13,15,10.95,4.34,21.41-3.14,24-5,4.72-3.38,7.5-7.4,9-10-4.98,1.79-12.57,3.86-22,4-10.44.15-18.79-2.13-24-4Z"/>
    </g>
  </g>
</svg>