<?xml version="1.0" encoding="UTF-8"?>
<svg id="Layer_2" data-name="Layer 2" xmlns="http://www.w3.org/2000/svg" viewBox="0 0 133.73 58.56">
  <defs>
    <style>
      .cls-1 {
        fill: #883c20;
      }

      .cls-2 {
        fill: #b54f2b;
      }

      .cls-3 {
        fill: #f0efdf;
      }

      .cls-4 {
        fill: #e2e3e4;
      }
    </style>
  </defs>
  <g id="Layer_1-2" data-name="Layer 1">
    <g>
      <path class="cls-2" d="M1.62,39.32c4,6.43,14.39,6.04,35,5,0,0,14.51-.73,40-10,1.33-.48,4.05-1.54,5-4,.61-1.59.26-3.16,0-4-8.11,3.82-15.06,6.36-20,8-4.41,1.46-24.3,7.88-45,6-4.99-.45-10.89-1.46-14-6-1.47-2.14-1.88-4.42-2-6-.75,3.15-1.2,7.47,1,11Z"/>
      <path class="cls-4" d="M49.62,9.32c1.01-.45,1.81-.14,3,0,3.42.4,4.82-1.19,10-3,4.35-1.52,9.44-3.29,13-1,.69.45,1.58.98,2,2,1.92,4.7-7.28,16.15-17.67,16.44-5.22.15-11.86-2.49-13-7-.67-2.65.43-6.44,2.67-7.44Z"/>
      <path class="cls-3" d="M.62,27.32c-.41,2.33.75,5.18,2,7,0,0,.13.2.27.37,1.32,1.71,6.06,6.02,24.73,5.63,15.4-.32,27.1-3.51,32-5,9.39-2.85,16.85-6.31,22-9,.22-1.94.31-4.32,0-7-.62-5.36-2.54-9.47-4-12-1.51,5.95-6.14,10.58-12,12-8.31,2.01-14.52-3.56-15-4-.26-.66-.63-1.7-1-3-.62-2.22-.54-2.8-1-4-.14-.37-1.14-2.76-3-4-2.18-1.45-5.17-.6-7,0-9.99,3.29-12.33,8.15-22,12-3.08,1.23-7.24,2.49-12,6-2.48,1.83-3.69,3.22-4,5Z"/>
      <path class="cls-1" d="M24.62,12.32c-1.46,1.59,1.82,6.72,2,7,1.14,1.76,3.6,5.55,6,5,.9-.2,1.81-1.02,2-2,.36-1.9-2.37-2.58-4-6-1.43-3.01-.9-5.8-2-6-.33-.06-.43.18-2,1-1.56.81-1.73.71-2,1Z"/>
      <path class="cls-1" d="M32.39,7.22c-1.46,1.59,1.82,6.72,2,7,1.14,1.76,3.6,5.55,6,5,.9-.2,1.81-1.02,2-2,.36-1.9-2.37-2.58-4-6-1.43-3.01-.9-5.8-2-6-.33-.06-.43.18-2,1-1.56.81-1.73.71-2,1Z"/>
      <path class="cls-4" d="M101.62,9.32c1-1.34,2.75-.33,6-2,2.25-1.16,2.29-2.09,5-4,.96-.67,3.4-2.39,6-3,3.49-.82,8.72-.13,11,3,3.34,4.61-.32,13.68-6.67,17.44-5.92,3.5-13.75,2.14-18-2-2.84-2.77-4.8-7.46-3.33-9.44Z"/>
      <path class="cls-2" d="M53.62,41.32c-.36,1.36-.72,3.57,0,6,1.31,4.43,5.33,6.6,8,8,3.4,1.78,9.38,3.99,19,3,6.18-.63,12.57-2.45,23-8,7.59-4.03,17.89-10.34,29-20,.35-.66.79-1.68,1-3,.2-1.24.11-2.29,0-3-7.36,6.8-23.88,20.82-44,27-3.27,1.01-13.25,3.83-23,1-2.7-.78-7.73-2.32-11-7-1.06-1.52-1.66-2.98-2-4Z"/>
      <path class="cls-3" d="M53.62,42.32c-.09-1.48.49-2.81,1-4,1.24-2.87,3.24-4.61,5-6,6-4.72,7.51-3.89,11-7,3.31-2.95,1.89-3.65,7-10,5.1-6.33,8.12-7.65,9-8,1.05-.42,4.11-1.61,8-1,3.89.61,6.39,2.67,8,4,3.32,2.74,5.09,5.92,6,8,1.37.61,3.07,1.1,5,1,1.87-.1,2.87-.69,9-4,4.14-2.24,4.45-2.38,5-3,2.5-2.81,2.3-6.84,2-9,1.65,1.9,2.52,3.69,3,5,.56,1.51.9,3.18,1,10,.03,2.49.02,4.55,0,6-3.22,3.18-7.54,7.06-13,11-2.88,2.08-9.5,6.64-19,11-7.8,3.58-13.63,6.19-22,7-5.89.57-9.89-.07-13-1-1.26-.38-12.63-3.9-13-10Z"/>
      <path class="cls-1" d="M74.62,19.32c1.11-.9,3.9,1.32,7,3,6.4,3.47,10.41,2.6,11,5,.37,1.49-.84,3.18-2,4-2.73,1.93-6.71.04-11-2-.47-.22-7.5-3.62-7-6,.06-.29.18-.32,1-2,.81-1.67.78-1.82,1-2Z"/>
      <path class="cls-1" d="M80.62,12.32c1.54-1.02,4.19,1.12,8,3,5.82,2.88,8.56,2.31,9.05,4.26.43,1.7-1.17,3.96-3.05,4.74-1.11.46-2.33.39-9-3-6.34-3.23-8.17-4.67-7.95-5.74.05-.22.35-.56.95-1.26.47-.54,1.48-1.66,2-2Z"/>
    </g>
  </g>
</svg>