<?xml version="1.0" encoding="UTF-8"?>
<svg id="Layer_2" data-name="Layer 2" xmlns="http://www.w3.org/2000/svg" viewBox="0 0 73.07 55.88">
  <defs>
    <style>
      .cls-1 {
        fill: #ffe6b9;
      }

      .cls-2 {
        fill: #ffb4ec;
      }
    </style>
  </defs>
  <g id="Layer_1-2" data-name="Layer 1">
    <g>
      <path class="cls-2" d="M.9,38.01c3.91,9.53,21.6,12.99,31.62,6.32,4.9-3.26,6.65-8.06,9.49-15.81,2.9-7.94,7.17-19.6,1.58-25.3-3.45-3.52-10.25-4.33-14.23-1.58-3.31,2.28-3.89,6.47-4.74,12.65-.72,5.21-.42,9.61,0,12.65-6.63-6.53-15.64-7.24-20.55-3.16C-.02,27.16-.92,33.57.9,38.01Z"/>
      <path class="cls-1" d="M24.61,11.13c7.38,1.58,14.76,3.16,22.13,4.74-.53,2.11-1.05,4.22-1.58,6.32-6.85-1.58-13.7-3.16-20.55-4.74v-6.32Z"/>
      <path class="cls-2" d="M47.52,55.31c9.77,3.25,23.94-7.89,25.42-19.84.72-5.84-1.77-10.3-5.8-17.5C63.02,10.59,56.96-.25,49,.26c-4.92.32-9.96,4.95-10.48,9.75-.43,3.99,2.37,7.17,6.49,11.85,3.48,3.95,7.02,6.59,9.59,8.25-9.27.76-15.69,7.14-15.8,13.52-.09,5.3,4.17,10.16,8.72,11.68Z"/>
      <path class="cls-1" d="M41.89,17.82c6.18-3.46,12.36-6.92,18.53-10.38,1.05,1.89,2.1,3.79,3.15,5.68-5.81,3.13-11.63,6.26-17.44,9.38-1.41-1.56-2.83-3.13-4.24-4.69Z"/>
    </g>
  </g>
</svg>