<?xml version="1.0" encoding="UTF-8"?>
<svg id="Layer_2" data-name="Layer 2" xmlns="http://www.w3.org/2000/svg" viewBox="0 0 306.31 415.07">
  <defs>
    <style>
      .cls-1 {
        fill: #fffaed;
      }

      .cls-2 {
        fill: none;
        stroke: #ebdfce;
        stroke-miterlimit: 10;
      }

      .cls-3 {
        fill: #805d41;
      }

      .cls-4 {
        fill: #fff5dc;
      }

      .cls-5 {
        fill: #dbdbdb;
      }

      .cls-6 {
        fill: #bfb59e;
      }

      .cls-7 {
        fill: #f8f8f8;
      }
    </style>
  </defs>
  <g id="Layer_1-2" data-name="Layer 1">
    <g>
      <path class="cls-6" d="M255,42c7.17-7.2,14.83-14.56,23-22,7.81-7.11,15.49-13.77,23-20,.99.74,2.83,2.33,4,5,.68,1.56.92,2.98,1,4v350c.3,1.93.52,4.74,0,8-1.32,8.27-6.27,12.14-20,25-17.02,15.94-22.53,22.26-33,23-1.67.12-3.05.07-4,0,1.51-.61,4.42-2.01,7-5,2.71-3.14,3.65-6.4,4-8V51c-.08-1.02-.32-2.44-1-4-1.17-2.67-3.01-4.26-4-5Z"/>
      <rect class="cls-4" y="38.28" width="261" height="376.45" rx="14.5" ry="14.5"/>
      <circle class="cls-3" cx="130.5" cy="243.28" r="109.5"/>
      <circle class="cls-5" cx="130.5" cy="243.28" r="82.5"/>
      <line class="cls-2" y1="368.78" x2="261" y2="368.78"/>
      <path class="cls-7" d="M226.79,278.78c-8.15,1.39-15.27.88-20.57,0-5.09,0-9.21-4.12-9.21-9.21v-52.57c0-5.09,4.12-9.21,9.21-9.21,3.65-1.1,11.59-2.9,20.57,0,3.39,1.09,6.12,2.6,8.21,4,2.32,7.32,4.71,17.58,5,30,.34,14.84-2.46,26.96-5,35-2.45.78-5.19,1.48-8.21,2Z"/>
      <path class="cls-6" d="M0,109.78h120V37.78H14c-1.15.11-6.11.71-10,5C.3,46.86.03,51.56,0,52.78v57Z"/>
      <rect class="cls-1" x="21" y="56.78" width="79" height="35"/>
    </g>
  </g>
</svg>