<?xml version="1.0" encoding="UTF-8"?>
<svg id="Layer_2" data-name="Layer 2" xmlns="http://www.w3.org/2000/svg" viewBox="0 0 1366.5 770.04">
  <defs>
    <style>
      .cls-1 {
        fill: #fde7cc;
      }

      .cls-2 {
        fill: #dae7ec;
      }

      .cls-3 {
        fill: #927b6c;
      }

      .cls-4 {
        fill: #fef5eb;
      }

      .cls-5 {
        fill: #955223;
      }

      .cls-6 {
        fill: #3a3939;
      }

      .cls-7 {
        fill: #b6a79d;
      }

      .cls-8 {
        fill: #e6d7ff;
      }

      .cls-9 {
        fill: #d7c1b9;
        stroke: #fff;
        stroke-miterlimit: 10;
      }

      .cls-10 {
        fill: #ffaeb7;
      }
    </style>
  </defs>
  <g id="Layer_1-2" data-name="Layer 1">
    <rect class="cls-9" x=".66" y="419.22" width="1365.34" height="350.32"/>
    <rect class="cls-10" width="1366" height="432"/>
    <rect class="cls-5" x="967.16" y="61.32" width="191" height="261"/>
    <rect class="cls-2" x="981.44" y="84.29" width="163.72" height="223.73"/>
    <rect class="cls-7" x="1175.16" y="39.32" width="3" height="246"/>
    <rect class="cls-3" x="925.16" y="33.32" width="272" height="6"/>
    <rect class="cls-1" x="935.16" y="39.32" width="251" height="81"/>
    <rect class="cls-4" x="560.16" y="54.32" width="266" height="166"/>
    <path class="cls-8" d="M409.71,666.82H68.71c28.82-38.83,57.63-77.67,86.45-116.5,103.15-.33,206.3-.67,309.45-1l-54.89,117.5Z"/>
    <g>
      <rect class="cls-6" x="964.74" y="265.99" width="95.89" height="108.4" rx="17.63" ry="17.63"/>
      <path class="cls-6" d="M948.06,396.28h129.24c-.22-1.36-.74-3.32-2.08-5.21-4.28-6-13.37-6.21-17.72-6.25-20.64-.2-39.08,0-44.82,0-8.26,0-23.43-.49-42.73,0-4.8.12-14.84.51-19.8,7.3-1.15,1.57-1.75,3.11-2.08,4.17Z"/>
      <path class="cls-6" d="M948.24,396.28h129.24c-.22.97-.74,2.37-2.08,3.72-4.28,4.28-13.37,4.43-17.72,4.46-20.64.14-39.08,0-44.82,0-8.26,0-23.43.35-42.73,0-4.8-.09-14.84-.36-19.8-5.21-1.15-1.12-1.75-2.22-2.08-2.98Z"/>
      <path class="cls-6" d="M965.78,404.61c-.36,1.75.24,3.55,1.56,4.69,1.76,1.51,3.91,1.1,4.17,1.04h84.42c.58-.19,1.97-.71,3.13-2.08,1.24-1.47,1.5-3.05,1.56-3.65h-94.85Z"/>
      <path class="cls-6" d="M985.06,410.35c-.09.54-.43,2.89,1.04,5.21,1.44,2.26,3.62,2.97,4.17,3.13h43.78c.76-.16,3.26-.78,5.21-3.13,1.76-2.12,2.03-4.4,2.08-5.21h-56.28Z"/>
      <rect class="cls-6" x="1003.82" y="418.68" width="16.68" height="13.55"/>
      <rect class="cls-6" x="1005.91" y="432.23" width="12.51" height="17.72"/>
      <rect class="cls-6" x="1003.82" y="449.95" width="16.68" height="23.97"/>
      <path class="cls-6" d="M1070.53,490.6c-.02-.9-.18-2.47-1.04-4.17-1.29-2.53-3.35-3.74-4.17-4.17-17.72-2.78-35.44-5.56-53.16-8.34-17.02,2.78-34.05,5.56-51.07,8.34-.7.22-3.59,1.2-5.21,4.17-.93,1.69-1.04,3.3-1.04,4.17h115.69Z"/>
      <rect class="cls-6" x="1007.99" y="374.91" width="9.38" height="9.38"/>
      <circle class="cls-6" cx="1050.21" cy="424.42" r="3.65"/>
      <path class="cls-6" d="M948.58,396.8c.78.96,1.8,2.05,3.13,3.13,1.91,1.55,3.77,2.52,5.21,3.13-.96.15-7.35,1.08-11.46-3.13-.99-1.01-1.64-2.11-2.08-3.13v-32.31h5.21v32.31Z"/>
      <path class="cls-6" d="M938.16,354.06h15.63c.48,4.86-1.75,9.06-5.21,10.42-.31.12-2.66,1.01-5.21,0-3.46-1.36-5.69-5.57-5.21-10.42Z"/>
      <path class="cls-6" d="M1077.17,397.16c-.78.96-1.8,2.05-3.13,3.13-1.91,1.55-3.77,2.52-5.21,3.13.96.15,7.35,1.08,11.46-3.13.99-1.01,1.64-2.11,2.08-3.13,0-10.77,0-21.54,0-32.31-1.74,0-3.47,0-5.21,0,0,10.77,0,21.54,0,32.31Z"/>
      <path class="cls-6" d="M1087.59,354.43c-5.21,0-10.42,0-15.63,0-.48,4.86,1.75,9.06,5.21,10.42.31.12,2.66,1.01,5.21,0,3.46-1.36,5.69-5.57,5.21-10.42Z"/>
      <path class="cls-6" d="M1028.84,418.68c-.11,1.17-.09,2.97,1.04,4.17,1.32,1.39,3.39,1.17,7.3,1.04,2.15-.07,5.36-.12,9.38,0"/>
      <circle class="cls-6" cx="962.13" cy="501.02" r="7.3"/>
      <circle class="cls-6" cx="1013.21" cy="501.02" r="7.3"/>
      <circle class="cls-6" cx="1063.23" cy="501.02" r="7.3"/>
      <rect class="cls-6" x="960.05" y="490.6" width="4.17" height="3.13"/>
      <rect class="cls-6" x="1011.12" y="490.6" width="4.17" height="3.13"/>
      <rect class="cls-6" x="1061.15" y="490.6" width="4.17" height="3.13"/>
    </g>
  </g>
</svg>