<?xml version="1.0" encoding="UTF-8"?>
<svg id="Layer_2" data-name="Layer 2" xmlns="http://www.w3.org/2000/svg" viewBox="0 0 400.19 271.3">
  <defs>
    <style>
      .cls-1 {
        fill: #ff6b82;
      }
    </style>
  </defs>
  <g id="Layer_1-2" data-name="Layer 1">
    <path class="cls-1" d="M72.67,2.58c18.25-8.47,21.55,6.47,75,8,51.29,1.47,62.53-11.88,102-4,9.58,1.91,22.04,5.32,40,4,21.37-1.57,26.77-8.08,36-6,20.31,4.57,25.37,43.07,35,85,23.43,101.99,51.63,127.28,34,150-2.9,3.73-8.23,8.94-75,18-61.98,8.41-92.97,12.61-116,9-45.96-7.21-55.23-24.26-87-17-21.29,4.86-27,14.77-54,19-15.85,2.48-42.8,6.71-56-6-16.32-15.71.01-46.12,20-124C50.27,46.63,46.59,14.68,72.67,2.58Z"/>
  </g>
</svg>