<?xml version="1.0" encoding="UTF-8"?>
<svg id="Layer_2" data-name="Layer 2" xmlns="http://www.w3.org/2000/svg" viewBox="0 0 76.54 74.99">
  <defs>
    <style>
      .cls-1 {
        fill: #fef0d7;
      }
    </style>
  </defs>
  <g id="Layer_1-2" data-name="Layer 1">
    <g>
      <rect class="cls-1" x="4.98" y="13.96" width="17" height="33" rx="5.71" ry="5.71" transform="translate(16.86 -2.68) rotate(29.7)"/>
      <rect class="cls-1" x="53.62" y="41.71" width="17" height="33" rx="4.84" ry="4.84" transform="translate(37 -23.13) rotate(29.7)"/>
      <path class="cls-1" d="M23.83,17.37c8.97-8.9,22.88-10.5,33.36-4,9.89,6.13,14.73,18.23,11.81,29.76.87.5,1.74.99,2.61,1.49,1.11-1.64,6.8-10.45,4.32-21.71-2.61-11.84-12.28-17.36-14.65-18.72-2.62-1.5-11.26-5.92-22.2-3.46-12.43,2.8-18.51,12.39-19.59,14.16l4.34,2.48Z"/>
    </g>
  </g>
</svg>