<?xml version="1.0" encoding="UTF-8"?>
<svg id="Layer_2" data-name="Layer 2" xmlns="http://www.w3.org/2000/svg" viewBox="0 0 169 81.55">
  <defs>
    <style>
      .cls-1 {
        fill: none;
      }

      .cls-1, .cls-2 {
        stroke: #000;
        stroke-miterlimit: 10;
      }

      .cls-2 {
        fill: #b0b0b0;
      }
    </style>
  </defs>
  <g id="Layer_1-2" data-name="Layer 1">
    <g>
      <rect class="cls-2" x=".5" y="23.05" width="168" height="58" rx="4.9" ry="4.9"/>
      <rect class="cls-1" x="4.5" y="36.05" width="6" height="6"/>
      <rect class="cls-1" x="13.5" y="36.05" width="6" height="6"/>
      <rect class="cls-1" x="22.5" y="36.05" width="6" height="6"/>
      <rect class="cls-1" x="31.5" y="36.05" width="6" height="6"/>
      <rect class="cls-1" x="40.5" y="36.05" width="6" height="6"/>
      <rect class="cls-1" x="49.5" y="36.05" width="6" height="6"/>
      <rect class="cls-1" x="58.5" y="36.05" width="6" height="6"/>
      <rect class="cls-1" x="67.5" y="36.05" width="6" height="6"/>
      <rect class="cls-1" x="76.5" y="36.05" width="6" height="6"/>
      <rect class="cls-1" x="85.5" y="36.05" width="6" height="6"/>
      <rect class="cls-1" x="94.5" y="36.05" width="6" height="6"/>
      <rect class="cls-1" x="103.5" y="36.05" width="6" height="6"/>
      <rect class="cls-1" x="4.5" y="44.05" width="10" height="6"/>
      <rect class="cls-1" x="17.5" y="44.05" width="6" height="6"/>
      <rect class="cls-1" x="26.5" y="44.05" width="6" height="6"/>
      <rect class="cls-1" x="35.5" y="44.05" width="6" height="6"/>
      <rect class="cls-1" x="44.5" y="44.05" width="6" height="6"/>
      <rect class="cls-1" x="53.5" y="44.05" width="6" height="6"/>
      <rect class="cls-1" x="62.5" y="44.05" width="6" height="6"/>
      <rect class="cls-1" x="71.5" y="44.05" width="6" height="6"/>
      <rect class="cls-1" x="80.5" y="44.05" width="6" height="6"/>
      <rect class="cls-1" x="89.5" y="44.05" width="6" height="6"/>
      <rect class="cls-1" x="98.5" y="44.05" width="6" height="6"/>
      <rect class="cls-1" x="107.5" y="44.05" width="6" height="6"/>
      <rect class="cls-1" x="4.5" y="52.05" width="14" height="6"/>
      <rect class="cls-1" x="21.5" y="52.05" width="6" height="6"/>
      <rect class="cls-1" x="30.5" y="52.05" width="6" height="6"/>
      <rect class="cls-1" x="39.5" y="52.05" width="6" height="6"/>
      <rect class="cls-1" x="48.5" y="52.05" width="6" height="6"/>
      <rect class="cls-1" x="57.5" y="52.05" width="6" height="6"/>
      <rect class="cls-1" x="66.5" y="52.05" width="6" height="6"/>
      <rect class="cls-1" x="75.5" y="52.05" width="6" height="6"/>
      <rect class="cls-1" x="84.5" y="52.05" width="6" height="6"/>
      <rect class="cls-1" x="93.5" y="52.05" width="6" height="6"/>
      <rect class="cls-1" x="102.5" y="52.05" width="6" height="6"/>
      <rect class="cls-1" x="111.5" y="52.05" width="6" height="6"/>
      <rect class="cls-1" x="4.5" y="60.05" width="18" height="6"/>
      <rect class="cls-1" x="25.5" y="60.05" width="6" height="6"/>
      <rect class="cls-1" x="34.5" y="60.05" width="6" height="6"/>
      <rect class="cls-1" x="43.5" y="60.05" width="6" height="6"/>
      <rect class="cls-1" x="52.5" y="60.05" width="6" height="6"/>
      <rect class="cls-1" x="61.5" y="60.05" width="6" height="6"/>
      <rect class="cls-1" x="70.5" y="60.05" width="6" height="6"/>
      <rect class="cls-1" x="79.5" y="60.05" width="6" height="6"/>
      <rect class="cls-1" x="88.5" y="60.05" width="6" height="6"/>
      <rect class="cls-1" x="97.5" y="60.05" width="6" height="6"/>
      <rect class="cls-1" x="106.5" y="60.05" width="6" height="6"/>
      <rect class="cls-1" x="115.5" y="60.05" width="6" height="6"/>
      <rect class="cls-1" x="4.5" y="68.05" width="6" height="6"/>
      <rect class="cls-1" x="13.5" y="68.05" width="6" height="6"/>
      <rect class="cls-1" x="22.5" y="68.05" width="6" height="6"/>
      <rect class="cls-1" x="31.5" y="68.05" width="6" height="6"/>
      <rect class="cls-1" x="88.5" y="68.05" width="6" height="6"/>
      <rect class="cls-1" x="97.5" y="68.05" width="6" height="6"/>
      <rect class="cls-1" x="106.5" y="68.05" width="6" height="6"/>
      <rect class="cls-1" x="115.5" y="68.05" width="6" height="6"/>
      <rect class="cls-1" x="124.5" y="68.05" width="6" height="6"/>
      <rect class="cls-1" x="133.5" y="68.05" width="6" height="6"/>
      <rect class="cls-1" x="142.5" y="68.05" width="6" height="6"/>
      <rect class="cls-1" x="40.5" y="68.05" width="45" height="6"/>
      <rect class="cls-1" x="4.5" y="27.05" width="6" height="6"/>
      <rect class="cls-1" x="22.5" y="27.05" width="6" height="6"/>
      <rect class="cls-1" x="31.5" y="27.05" width="6" height="6"/>
      <rect class="cls-1" x="40.5" y="27.05" width="6" height="6"/>
      <rect class="cls-1" x="49.5" y="27.05" width="6" height="6"/>
      <rect class="cls-1" x="58.5" y="27.05" width="6" height="6"/>
      <rect class="cls-1" x="67.5" y="27.05" width="6" height="6"/>
      <rect class="cls-1" x="76.5" y="27.05" width="6" height="6"/>
      <rect class="cls-1" x="85.5" y="27.05" width="6" height="6"/>
      <rect class="cls-1" x="94.5" y="27.05" width="6" height="6"/>
      <rect class="cls-1" x="103.5" y="27.05" width="6" height="6"/>
      <rect class="cls-1" x="121.5" y="27.05" width="6" height="6"/>
      <rect class="cls-1" x="133.5" y="60.05" width="6" height="6"/>
      <rect class="cls-1" x="112.5" y="36.05" width="6" height="6"/>
      <rect class="cls-1" x="116.5" y="44.05" width="6" height="6"/>
      <rect class="cls-1" x="120.5" y="52.05" width="6" height="6"/>
      <rect class="cls-1" x="121.5" y="36.05" width="6" height="6"/>
      <rect class="cls-1" x="130.5" y="36.05" width="13" height="6"/>
      <rect class="cls-1" x="125.5" y="44.05" width="6" height="6"/>
      <rect class="cls-1" x="134.5" y="44.05" width="9" height="6"/>
      <rect class="cls-1" x="129.5" y="52.05" width="14" height="6"/>
      <rect class="cls-1" x="130.5" y="27.05" width="6" height="6"/>
      <rect class="cls-1" x="139.5" y="27.05" width="6" height="6"/>
      <rect class="cls-1" x="148.5" y="27.05" width="6" height="6"/>
      <rect class="cls-1" x="157.5" y="27.05" width="6" height="6"/>
      <rect class="cls-1" x="157.5" y="36.05" width="6" height="6"/>
      <rect class="cls-1" x="157.5" y="44.05" width="6" height="6"/>
      <rect class="cls-1" x="157.5" y="52.05" width="6" height="6"/>
      <rect class="cls-1" x="157.5" y="60.05" width="6" height="6"/>
      <rect class="cls-1" x="157.5" y="68.05" width="6" height="6"/>
      <path class="cls-1" d="M85.5,23.05c-.31-1.35-.62-3.54,0-6,.98-3.89,3.43-5.13,5-9,.67-1.65,1.37-4.26,1-8"/>
    </g>
  </g>
</svg>