<?xml version="1.0" encoding="UTF-8"?>
<svg id="Layer_2" data-name="Layer 2" xmlns="http://www.w3.org/2000/svg" viewBox="0 0 41.19 45.75">
  <defs>
    <style>
      .cls-1 {
        fill: none;
      }

      .cls-1, .cls-2 {
        stroke: #fff;
        stroke-miterlimit: 10;
      }

      .cls-2 {
        fill: #453c3c;
      }
    </style>
  </defs>
  <g id="Layer_1-2" data-name="Layer 1">
    <g>
      <path class="cls-2" d="M31.61,44.89c-6.43,1.61-12.95-2.29-14.56-8.72l-3.65-14.55c-1.61-6.43,2.29-12.95,8.72-14.56s12.95,2.29,14.56,8.72l3.65,14.55c1.61,6.43-2.29,12.95-8.72,14.56Z"/>
      <path class="cls-1" d="M14.13,24.53c1.68-1.52,5.35-4.44,10.91-5.83,2.2-.55,6.81-1.4,12.37-.01"/>
      <path class="cls-1" d="M22.12,7.06c.97,3.88,1.95,7.76,2.92,11.64"/>
      <path class="cls-1" d="M21.85,7.13c-.45-4.85-1.75-6.15-2.76-6.51-2.99-1.06-6.11,5.13-11.08,5.02C4.65,5.56,2.01,2.65.41.41"/>
    </g>
  </g>
</svg>