<?xml version="1.0" encoding="UTF-8"?>
<svg id="Layer_2" data-name="Layer 2" xmlns="http://www.w3.org/2000/svg" viewBox="0 0 99 210.64">
  <defs>
    <style>
      .cls-1 {
        fill: none;
        stroke: #000;
        stroke-miterlimit: 10;
      }

      .cls-2 {
        fill: #b8c6ff;
      }
    </style>
  </defs>
  <g id="Layer_1-2" data-name="Layer 1">
    <g>
      <path class="cls-1" d="M88.35,21.64h-52L63.35.64c8.33,7,16.67,14,25,21Z"/>
      <path class="cls-2" d="M36,21.64c.81,1.21,9.31,13.5,25,14,16.94.54,26.44-13.16,27-14,3.67,61.67,7.33,123.33,11,185-11.67,1.33-23.33,2.67-35,4-1.67-40-3.33-80-5-120-5.67,40-11.33,80-17,120-14-1.67-28-3.33-42-5C12,144.31,24,82.98,36,21.64Z"/>
    </g>
  </g>
</svg>