<?xml version="1.0" encoding="UTF-8"?>
<svg id="Layer_2" data-name="Layer 2" xmlns="http://www.w3.org/2000/svg" viewBox="0 0 136 166.32">
  <defs>
    <style>
      .cls-1 {
        fill: none;
        stroke: #000;
        stroke-miterlimit: 10;
      }

      .cls-2 {
        fill: #ffc46a;
      }
    </style>
  </defs>
  <g id="Layer_1-2" data-name="Layer 1">
    <g>
      <path class="cls-1" d="M98.16,21.64h-52L73.16.64c8.33,7,16.67,14,25,21Z"/>
      <path class="cls-2" d="M46,21.32c4.87,9.49,14.46,15.64,25,16,11.23.38,21.78-5.87,27-16,5.9,4.47,13.17,10.96,20,20,10.95,14.48,15.75,28.84,18,38-10.67,5-21.33,10-32,15v-22,94H33v-91,19c-11-6.67-22-13.33-33-20,3.66-8.2,9.8-19.53,20-31,9.27-10.43,18.77-17.46,26-22Z"/>
    </g>
  </g>
</svg>